<?xml version="1.0" encoding="utf-8"?>
<!-- Generator: Adobe Illustrator 14.0.0, SVG Export Plug-In . SVG Version: 6.00 Build 43363)  -->
<!DOCTYPE svg PUBLIC "-//W3C//DTD SVG 1.1//EN" "http://www.w3.org/Graphics/SVG/1.1/DTD/svg11.dtd">
<svg version="1.1" id="Calque_1" xmlns="http://www.w3.org/2000/svg" xmlns:xlink="http://www.w3.org/1999/xlink" x="0px" y="0px"
	 width="90px" height="90px" viewBox="0 0 90 90" enable-background="new 0 0 90 90" xml:space="preserve">
<g>
	<g>
		<defs>
			<polyline id="SVGID_1_" points="-0.104,0 -0.104,90 89.898,90 89.898,0 			"/>
		</defs>
		<clipPath id="SVGID_2_">
			<use xlink:href="#SVGID_1_"  overflow="visible"/>
		</clipPath>
		<polyline clip-path="url(#SVGID_2_)" fill="#FFFFFF" points="89.898,0 13.671,0 13.671,13.786 -0.104,13.786 -0.103,90 76.114,90 
			76.114,76.229 89.898,76.229 89.898,0 		"/>
	</g>
	<g>
		<defs>
			<polyline id="SVGID_3_" points="-0.104,0 -0.104,90 89.898,90 89.898,0 			"/>
		</defs>
		<clipPath id="SVGID_4_">
			<use xlink:href="#SVGID_3_"  overflow="visible"/>
		</clipPath>
		<rect x="2.202" y="16.072" clip-path="url(#SVGID_4_)" fill="#1B171B" width="71.634" height="71.632"/>
	</g>
	<g>
		<defs>
			<polyline id="SVGID_5_" points="-0.104,0 -0.104,90 89.898,90 89.898,0 			"/>
		</defs>
		<clipPath id="SVGID_6_">
			<use xlink:href="#SVGID_5_"  overflow="visible"/>
		</clipPath>
		<path clip-path="url(#SVGID_6_)" fill="#FFFFFF" d="M12.819,69.493l3.161-0.243l-0.003,4.68l2.658-0.002
			c1.672,0,3.242,0.487,3.406,2.532c0.124,1.549-0.856,2.587-1.72,2.745c-1.062,0-0.744,0.004-2.159,0.004
			c0.468,0,1.847-0.854,1.539-2.027c-0.286-1.082-1.242-1.102-2.138-1.16c-0.897-0.056-4.696-0.248-4.696-0.248L12.819,69.493"/>
	</g>
	<g>
		<defs>
			<polyline id="SVGID_7_" points="-0.104,0 -0.104,90 89.898,90 89.898,0 			"/>
		</defs>
		<clipPath id="SVGID_8_">
			<use xlink:href="#SVGID_7_"  overflow="visible"/>
		</clipPath>
		<path clip-path="url(#SVGID_8_)" fill="#FFFFFF" d="M8.485,75.188c-0.574,0.694-1.146,1.756-0.818,2.94
			c0.983,3.315,6.26,4.778,8.48,4.868l-0.258-3.88c0,0-3.604,0.475-5.427-1.438c-0.773-0.809-0.619-1.66-0.036-2.395
			C9.744,75.251,8.943,75.207,8.485,75.188"/>
	</g>
	<g>
		<defs>
			<polyline id="SVGID_9_" points="-0.104,0 -0.104,90 89.898,90 89.898,0 			"/>
		</defs>
		<clipPath id="SVGID_10_">
			<use xlink:href="#SVGID_9_"  overflow="visible"/>
		</clipPath>
		<rect x="15.977" y="2.296" clip-path="url(#SVGID_10_)" fill="#FF000A" width="71.634" height="71.634"/>
	</g>
	<g>
		<defs>
			<polyline id="SVGID_11_" points="-0.104,0 -0.104,90 89.898,90 89.898,0 			"/>
		</defs>
		<clipPath id="SVGID_12_">
			<use xlink:href="#SVGID_11_"  overflow="visible"/>
		</clipPath>
		<path clip-path="url(#SVGID_12_)" fill="#FFFFFF" d="M24.628,50.854h-5.209V45.82h5.209V50.854 M24.628,70.484h-5.209V52.482
			h5.209V70.484z"/>
	</g>
	<g>
		<defs>
			<polyline id="SVGID_13_" points="-0.104,0 -0.104,90 89.898,90 89.898,0 			"/>
		</defs>
		<clipPath id="SVGID_14_">
			<use xlink:href="#SVGID_13_"  overflow="visible"/>
		</clipPath>
		<path clip-path="url(#SVGID_14_)" fill="#FFFFFF" d="M26.684,52.482h4.925v3.047h0.071c1.063-2.303,2.553-3.4,5.174-3.4
			c1.701,0,3.367,0.529,4.43,1.982c0.993,1.349,0.993,3.617,0.993,5.244v11.129h-5.21v-9.674c0-1.844,0.248-4.537-2.375-4.537
			c-0.92,0-1.77,0.533-2.196,1.346c-0.533,1.029-0.603,2.059-0.603,3.191v9.674h-5.209V52.482"/>
	</g>
	<g>
		<defs>
			<polyline id="SVGID_15_" points="-0.104,0 -0.104,90 89.898,90 89.898,0 			"/>
		</defs>
		<clipPath id="SVGID_16_">
			<use xlink:href="#SVGID_15_"  overflow="visible"/>
		</clipPath>
		<path clip-path="url(#SVGID_16_)" fill="#FFFFFF" d="M55.531,56.594h-3.863v7.159c0,2.375,0.178,2.904,2.411,2.904
			c0.46,0,1.133-0.07,1.735-0.142v3.936c-1.029,0.248-2.305,0.389-3.262,0.389c-1.486,0-3.472-0.212-4.643-1.169
			c-1.452-1.205-1.452-3.368-1.452-5.139v-7.938h-2.94v-4.146h3.152l0.461-5.282l4.536-0.354v5.636h3.862v4.146"/>
	</g>
	<g>
		<defs>
			<polyline id="SVGID_17_" points="-0.104,0 -0.104,90 89.898,90 89.898,0 			"/>
		</defs>
		<clipPath id="SVGID_18_">
			<use xlink:href="#SVGID_17_"  overflow="visible"/>
		</clipPath>
		<path clip-path="url(#SVGID_18_)" fill="#FFFFFF" d="M61.557,62.372l-0.035,0.886c0,2.125,1.203,3.861,3.473,3.861
			c1.596,0,3.188-1.169,3.188-2.835l4.821,0.354c0,0.885-2.091,6.2-8.188,6.2c-5.385,0-8.894-3.756-8.894-9.106
			c0-5.315,3.152-9.604,8.754-9.604c2.517,0,5.103,1.134,6.591,3.188c1.488,2.058,1.877,4.606,1.842,7.055L61.557,62.372
			 M67.9,59.287c-0.105-1.949-0.748-3.758-3.015-3.758c-2.303,0-3.188,1.701-3.366,3.758H67.9z"/>
	</g>
	<g>
		<defs>
			<polyline id="SVGID_19_" points="-0.104,0 -0.104,90 89.898,90 89.898,0 			"/>
		</defs>
		<clipPath id="SVGID_20_">
			<use xlink:href="#SVGID_19_"  overflow="visible"/>
		</clipPath>
		<path clip-path="url(#SVGID_20_)" fill="#FFFFFF" d="M79.348,52.482v3.367h0.067c0.533-1.914,1.597-3.898,3.862-3.722l0.887,0.07
			v5.211c-3.969-0.214-4.463,3.011-4.463,6.2v6.875h-5.21V52.482H79.348"/>
	</g>
	<g>
		<defs>
			<polyline id="SVGID_21_" points="-0.104,0 -0.104,90 89.898,90 89.898,0 			"/>
		</defs>
		<clipPath id="SVGID_22_">
			<use xlink:href="#SVGID_21_"  overflow="visible"/>
		</clipPath>
		<path clip-path="url(#SVGID_22_)" fill="#FFFFFF" d="M57.732,49.395h-1.574v-4.076h-0.629V44.1h0.629
			c0-0.471-0.02-1.04,0.249-1.446c0.331-0.491,0.95-0.718,1.528-0.718c0.129,0,0.565,0.013,0.899,0.075v1.209
			c-0.235-0.03-0.354-0.03-0.601-0.03c-0.504,0-0.504,0.331-0.504,0.792V44.1h0.963v1.219H57.73v4.076"/>
	</g>
	<g>
		<defs>
			<polyline id="SVGID_23_" points="-0.104,0 -0.104,90 89.898,90 89.898,0 			"/>
		</defs>
		<clipPath id="SVGID_24_">
			<use xlink:href="#SVGID_23_"  overflow="visible"/>
		</clipPath>
		<path clip-path="url(#SVGID_24_)" fill="#FFFFFF" d="M60.623,43.959v1.017h0.02c0.162-0.578,0.483-1.176,1.168-1.123l0.268,0.02
			v1.574c-1.197-0.065-1.348,0.909-1.348,1.87v2.078h-1.574v-5.437L60.623,43.959"/>
	</g>
	<g>
		<defs>
			<polyline id="SVGID_25_" points="-0.104,0 -0.104,90 89.898,90 89.898,0 			"/>
		</defs>
		<clipPath id="SVGID_26_">
			<use xlink:href="#SVGID_25_"  overflow="visible"/>
		</clipPath>
		<path clip-path="url(#SVGID_26_)" fill="#FFFFFF" d="M65.822,49.395c-0.065-0.275-0.083-0.564-0.073-0.845
			c-0.45,0.644-0.922,0.953-1.733,0.953c-0.964,0-1.711-0.513-1.711-1.54c0-0.804,0.502-1.35,1.219-1.617
			c0.619-0.234,1.485-0.279,2.15-0.342v-0.128c0-0.237,0.021-0.514-0.14-0.718c-0.14-0.182-0.407-0.255-0.642-0.255
			c-0.504,0-0.943,0.255-0.943,0.791l-1.485-0.139c0.16-1.318,1.444-1.701,2.589-1.701c0.557,0,1.284,0.128,1.725,0.492
			c0.557,0.45,0.502,1.049,0.502,1.702v2.535c0,0.276,0.022,0.546,0.107,0.812H65.822 M65.674,46.794
			c-0.6,0.065-1.701,0.205-1.701,0.995c0,0.432,0.256,0.718,0.695,0.718c0.321,0,0.609-0.172,0.791-0.448
			c0.227-0.345,0.215-0.664,0.215-1.051V46.794z"/>
	</g>
	<g>
		<defs>
			<polyline id="SVGID_27_" points="-0.104,0 -0.104,90 89.898,90 89.898,0 			"/>
		</defs>
		<clipPath id="SVGID_28_">
			<use xlink:href="#SVGID_27_"  overflow="visible"/>
		</clipPath>
		<path clip-path="url(#SVGID_28_)" fill="#FFFFFF" d="M68.111,43.959H69.6v0.92h0.021c0.322-0.697,0.773-1.026,1.564-1.026
			c0.513,0,1.016,0.16,1.336,0.598c0.302,0.407,0.302,1.092,0.302,1.584v3.359H71.25v-2.92c0-0.558,0.075-1.372-0.718-1.372
			c-0.278,0-0.535,0.162-0.663,0.406c-0.162,0.31-0.182,0.623-0.182,0.964v2.92h-1.574v-5.434"/>
	</g>
	<g>
		<defs>
			<polyline id="SVGID_29_" points="-0.104,0 -0.104,90 89.898,90 89.898,0 			"/>
		</defs>
		<clipPath id="SVGID_30_">
			<use xlink:href="#SVGID_29_"  overflow="visible"/>
		</clipPath>
		<path clip-path="url(#SVGID_30_)" fill="#FFFFFF" d="M77.038,46.025c0-0.493-0.257-0.976-0.825-0.976
			c-0.865,0-0.975,0.854-0.975,1.552c0,0.664,0.012,1.604,0.91,1.604c0.558,0,0.836-0.438,0.89-0.94l1.497,0.086
			c-0.128,1.351-1.145,2.151-2.473,2.151c-1.646,0-2.621-1.168-2.621-2.772c0-1.668,1.008-2.876,2.721-2.876
			c1.263,0,2.268,0.812,2.373,2.085L77.038,46.025"/>
	</g>
	<g>
		<defs>
			<polyline id="SVGID_31_" points="-0.104,0 -0.104,90 89.898,90 89.898,0 			"/>
		</defs>
		<clipPath id="SVGID_32_">
			<use xlink:href="#SVGID_31_"  overflow="visible"/>
		</clipPath>
		<path clip-path="url(#SVGID_32_)" fill="#FFFFFF" d="M80.708,46.943l-0.013,0.269c0,0.644,0.367,1.166,1.05,1.166
			c0.483,0,0.965-0.353,0.965-0.854l1.454,0.106c0,0.267-0.631,1.873-2.473,1.873c-1.625,0-2.686-1.136-2.686-2.749
			c0-1.606,0.953-2.901,2.645-2.901c0.76,0,1.541,0.34,1.99,0.963c0.447,0.622,0.566,1.39,0.555,2.127H80.708 M82.625,46.016
			c-0.033-0.591-0.227-1.136-0.911-1.136c-0.692,0-0.961,0.515-1.019,1.136H82.625z"/>
	</g>
</g>
</svg>
