<?xml version="1.0" encoding="UTF-8"?>

<svg version="1.2" baseProfile="tiny" width="750mm" height="750mm" viewBox="0 0 75000 75000" preserveAspectRatio="xMidYMid" fill-rule="evenodd" stroke-width="28.222" stroke-linejoin="round" xmlns="http://www.w3.org/2000/svg" xmlns:ooo="http://xml.openoffice.org/svg/export" xmlns:xlink="http://www.w3.org/1999/xlink" xml:space="preserve">
 <defs class="ClipPathGroup">
  <clipPath id="presentation_clip_path" clipPathUnits="userSpaceOnUse">
   <rect x="0" y="0" width="75000" height="75000"/>
  </clipPath>
 </defs>
 <defs class="TextShapeIndex">
  <g ooo:slide="id1" ooo:id-list="id3 id4 id5 id6 id7 id8 id9 id10 id11 id12 id13 id14 id15 id16 id17 id18"/>
 </defs>
 <defs class="EmbeddedBulletChars">
  <g id="bullet-char-template(57356)" transform="scale(0.00048828125,-0.00048828125)">
   <path d="M 580,1141 L 1163,571 580,0 -4,571 580,1141 Z"/>
  </g>
  <g id="bullet-char-template(57354)" transform="scale(0.00048828125,-0.00048828125)">
   <path d="M 8,1128 L 1137,1128 1137,0 8,0 8,1128 Z"/>
  </g>
  <g id="bullet-char-template(10146)" transform="scale(0.00048828125,-0.00048828125)">
   <path d="M 174,0 L 602,739 174,1481 1456,739 174,0 Z M 1358,739 L 309,1346 659,739 1358,739 Z"/>
  </g>
  <g id="bullet-char-template(10132)" transform="scale(0.00048828125,-0.00048828125)">
   <path d="M 2015,739 L 1276,0 717,0 1260,543 174,543 174,936 1260,936 717,1481 1274,1481 2015,739 Z"/>
  </g>
  <g id="bullet-char-template(10007)" transform="scale(0.00048828125,-0.00048828125)">
   <path d="M 0,-2 C -7,14 -16,27 -25,37 L 356,567 C 262,823 215,952 215,954 215,979 228,992 255,992 264,992 276,990 289,987 310,991 331,999 354,1012 L 381,999 492,748 772,1049 836,1024 860,1049 C 881,1039 901,1025 922,1006 886,937 835,863 770,784 769,783 710,716 594,584 L 774,223 C 774,196 753,168 711,139 L 727,119 C 717,90 699,76 672,76 641,76 570,178 457,381 L 164,-76 C 142,-110 111,-127 72,-127 30,-127 9,-110 8,-76 1,-67 -2,-52 -2,-32 -2,-23 -1,-13 0,-2 Z"/>
  </g>
  <g id="bullet-char-template(10004)" transform="scale(0.00048828125,-0.00048828125)">
   <path d="M 285,-33 C 182,-33 111,30 74,156 52,228 41,333 41,471 41,549 55,616 82,672 116,743 169,778 240,778 293,778 328,747 346,684 L 369,508 C 377,444 397,411 428,410 L 1163,1116 C 1174,1127 1196,1133 1229,1133 1271,1133 1292,1118 1292,1087 L 1292,965 C 1292,929 1282,901 1262,881 L 442,47 C 390,-6 338,-33 285,-33 Z"/>
  </g>
  <g id="bullet-char-template(9679)" transform="scale(0.00048828125,-0.00048828125)">
   <path d="M 813,0 C 632,0 489,54 383,161 276,268 223,411 223,592 223,773 276,916 383,1023 489,1130 632,1184 813,1184 992,1184 1136,1130 1245,1023 1353,916 1407,772 1407,592 1407,412 1353,268 1245,161 1136,54 992,0 813,0 Z"/>
  </g>
  <g id="bullet-char-template(8226)" transform="scale(0.00048828125,-0.00048828125)">
   <path d="M 346,457 C 273,457 209,483 155,535 101,586 74,649 74,723 74,796 101,859 155,911 209,963 273,989 346,989 419,989 480,963 531,910 582,859 608,796 608,723 608,648 583,586 532,535 482,483 420,457 346,457 Z"/>
  </g>
  <g id="bullet-char-template(8211)" transform="scale(0.00048828125,-0.00048828125)">
   <path d="M -4,459 L 1135,459 1135,606 -4,606 -4,459 Z"/>
  </g>
 </defs>
 <defs class="TextEmbeddedBitmaps"/>
 <g>
  <g id="id2" class="Master_Slide">
   <g id="bg-id2" class="Background"/>
   <g id="bo-id2" class="BackgroundObjects"/>
  </g>
 </g>
 <g class="SlideGroup">
  <g>
   <g id="id1" class="Slide" clip-path="url(#presentation_clip_path)">
    <g class="Page">
     <g class="Group">
      <g class="com.sun.star.drawing.PolyPolygonShape">
       <g id="id3">
        <path fill="rgb(255,255,255)" stroke="none" d="M 75000,0 L 11522,0 11522,11507 47,11507 47,75000 63525,75000 63525,63520 75000,63520 75000,0 Z"/>
       </g>
      </g>
      <g class="com.sun.star.drawing.PolyPolygonShape">
       <g id="id4">
        <path fill="rgb(35,31,32)" stroke="none" d="M 1964,13398 L 61622,13398 61622,73082 1964,73082 1964,13398 Z"/>
       </g>
      </g>
      <g class="com.sun.star.drawing.ClosedBezierShape">
       <g id="id5">
        <path fill="rgb(255,255,255)" stroke="none" d="M 10801,57903 L 13425,57699 13425,61602 15641,61602 C 17028,61602 18360,61997 18496,63711 18592,65016 17762,65873 17042,66009 16158,66009 16430,66009 15247,66009 15641,66009 16783,65302 16525,64323 16294,63411 15492,63384 14744,63343 13996,63289 10842,63139 10842,63139 L 10801,57903 Z"/>
       </g>
      </g>
      <g class="com.sun.star.drawing.ClosedBezierShape">
       <g id="id6">
        <path fill="rgb(255,255,255)" stroke="none" d="M 7183,62650 C 6707,63221 6231,64119 6503,65112 7319,67873 11737,69097 13586,69165 L 13369,65928 C 13369,65928 10364,66322 8828,64731 8189,64064 8325,63343 8800,62731 8229,62704 7563,62663 7183,62650 Z"/>
       </g>
      </g>
      <g class="com.sun.star.drawing.PolyPolygonShape">
       <g id="id7">
        <path fill="rgb(37,74,165)" stroke="none" d="M 13425,1918 L 73083,1918 73083,61616 13425,61616 13425,1918 Z"/>
       </g>
      </g>
      <g class="com.sun.star.drawing.ClosedBezierShape">
       <g id="id8">
        <path fill="rgb(255,255,255)" stroke="none" d="M 20576,58746 L 17585,58746 17585,50993 16375,50993 16375,48667 17585,48667 C 17585,47783 17545,46708 18061,45933 18687,44995 19870,44573 20957,44573 21202,44573 22031,44587 22670,44709 L 22670,47008 C 22222,46953 21990,46953 21528,46953 20576,46953 20576,47579 20576,48449 L 20576,48667 22398,48667 22398,50993 20576,50993 20576,58746 Z"/>
       </g>
      </g>
      <g class="com.sun.star.drawing.ClosedBezierShape">
       <g id="id9">
        <path fill="rgb(255,255,255)" stroke="none" d="M 26042,48414 L 26042,50346 26083,50346 C 26395,49244 27007,48115 28299,48210 L 28815,48251 28815,51243 C 26531,51121 26246,52971 26246,54793 L 26246,58752 23268,58752 23268,48414 26042,48414 Z"/>
       </g>
      </g>
      <g class="com.sun.star.drawing.ClosedBezierShape">
       <g id="id10">
        <path fill="rgb(255,255,255)" stroke="none" d="M 35573,53808 C 34430,53931 32337,54189 32337,55699 32337,56515 32826,57059 33669,57059 34267,57059 34825,56733 35165,56202 35586,55550 35573,54951 35573,54217 L 35573,53808 Z M 35858,58746 C 35736,58215 35695,57671 35708,57141 34866,58365 33968,58950 32418,58950 30596,58950 29169,57971 29169,56026 29169,54502 30134,53468 31494,52952 32663,52503 34308,52421 35573,52299 L 35573,52054 C 35573,51619 35613,51088 35314,50694 35042,50354 34539,50204 34091,50204 33139,50204 32296,50694 32296,51714 L 29482,51455 C 29781,48939 32214,48205 34390,48205 35450,48205 36837,48449 37666,49143 38740,50000 38632,51143 38632,52380 L 38632,57209 C 38632,57726 38672,58243 38835,58746 L 35858,58746 Z"/>
       </g>
      </g>
      <g class="com.sun.star.drawing.ClosedBezierShape">
       <g id="id11">
        <path fill="rgb(255,255,255)" stroke="none" d="M 40141,48409 L 42982,48409 42982,50163 43023,50163 C 43635,48830 44478,48205 45987,48205 46966,48205 47917,48517 48529,49347 49100,50122 49100,51415 49100,52353 L 49100,58746 46109,58746 46109,53183 C 46109,52122 46245,50585 44750,50585 44219,50585 43730,50884 43485,51360 43186,51945 43145,52530 43145,53183 L 43145,58746 40141,58746 40141,48409 Z"/>
       </g>
      </g>
      <g class="com.sun.star.drawing.ClosedBezierShape">
       <g id="id12">
        <path fill="rgb(255,255,255)" stroke="none" d="M 56877,52339 C 56877,51415 56388,50490 55313,50490 53668,50490 53464,52122 53464,53441 53464,54706 53492,56488 55191,56488 56252,56488 56782,55658 56877,54706 L 59732,54869 C 59501,57427 57557,58950 55028,58950 51901,58950 50052,56733 50052,53686 50052,50517 51969,48205 55218,48205 57611,48205 59542,49755 59732,52176 L 56877,52339 Z"/>
       </g>
      </g>
      <g class="com.sun.star.drawing.ClosedBezierShape">
       <g id="id13">
        <path fill="rgb(255,255,255)" stroke="none" d="M 67223,52326 C 67155,51211 66788,50163 65497,50163 64178,50163 63661,51143 63566,52326 L 67223,52326 Z M 63580,54094 L 63566,54597 C 63566,55822 64259,56814 65551,56814 66462,56814 67400,56148 67400,55196 L 70160,55400 C 70160,55903 68964,58950 65456,58950 62370,58950 60357,56801 60357,53727 60357,50680 62166,48205 65374,48205 66815,48205 68311,48857 69167,50041 70010,51224 70242,52693 70214,54094 L 63580,54094 Z"/>
       </g>
      </g>
      <g class="com.sun.star.drawing.ClosedBezierShape">
       <g id="id14">
        <path fill="rgb(255,255,255)" stroke="none" d="M 20005,29727 L 20005,32257 20060,32257 C 20468,30815 21256,29332 22956,29455 L 23622,29509 23622,33440 C 20644,33277 20277,35698 20277,38078 L 20277,43233 16362,43233 16362,29727 20005,29727 Z"/>
       </g>
      </g>
      <g class="com.sun.star.drawing.ClosedBezierShape">
       <g id="id15">
        <path fill="rgb(255,255,255)" stroke="none" d="M 32459,36766 C 30964,36915 28231,37282 28231,39241 28231,40302 28870,41023 29958,41023 30760,41023 31467,40601 31929,39908 32486,39064 32459,38262 32459,37310 L 32459,36766 Z M 32826,43226 C 32663,42546 32609,41825 32636,41132 31521,42723 30352,43498 28340,43498 25947,43498 24084,42220 24084,39676 24084,37677 25335,36303 27116,35650 28652,35065 30814,34956 32459,34793 L 32459,34480 C 32459,33896 32513,33202 32106,32699 31766,32250 31100,32059 30515,32059 29264,32059 28176,32699 28176,34018 L 24492,33678 C 24886,30413 28068,29448 30909,29448 32296,29448 34104,29774 35205,30672 36592,31787 36456,33283 36456,34902 L 36456,41213 C 36456,41907 36511,42573 36715,43226 L 32826,43226 Z"/>
       </g>
      </g>
      <g class="com.sun.star.drawing.ClosedBezierShape">
       <g id="id16">
        <path fill="rgb(255,255,255)" stroke="none" d="M 46232,35732 C 46232,34440 46123,32195 44328,32195 42098,32195 42017,35133 42017,36752 42017,38207 42234,40683 44165,40683 44886,40683 45565,40207 45878,39595 46204,38983 46232,38262 46232,37595 L 46232,35732 Z M 46408,43226 L 46408,41132 46354,41132 C 45620,42573 44491,43498 42765,43498 38958,43498 37897,39771 37897,36643 37897,33433 38903,29448 42846,29448 44355,29448 45375,29910 46232,31148 L 46232,24986 50133,24986 50133,43226 46408,43226 Z"/>
       </g>
      </g>
      <g class="com.sun.star.drawing.PolyPolygonShape">
       <g id="id17">
        <path fill="rgb(255,255,255)" stroke="none" d="M 55952,43226 L 52023,43226 52023,29720 55952,29720 55952,43226 Z M 55952,28496 L 52023,28496 52023,24728 55952,24728 55952,28496 Z"/>
       </g>
      </g>
      <g class="com.sun.star.drawing.ClosedBezierShape">
       <g id="id18">
        <path fill="rgb(255,255,255)" stroke="none" d="M 61608,36045 C 61608,37595 61581,40887 63811,40887 66013,40887 66122,38234 66122,36602 66122,35541 66068,34263 65701,33256 65374,32372 64735,32032 63838,32032 61744,32032 61608,34508 61608,36045 Z M 70323,36575 C 70323,40438 67794,43498 63811,43498 59664,43498 57394,40356 57394,36439 57394,32508 59691,29448 63811,29448 68039,29448 70323,32590 70323,36575 Z"/>
       </g>
      </g>
     </g>
    </g>
   </g>
  </g>
 </g>
</svg>