<?xml version="1.0" encoding="utf-8"?>
<!-- Generator: Adobe Illustrator 19.0.0, SVG Export Plug-In . SVG Version: 6.00 Build 0)  -->
<svg version="1.1" id="Calque_1" xmlns="http://www.w3.org/2000/svg" xmlns:xlink="http://www.w3.org/1999/xlink" x="0px" y="0px"
	 viewBox="-329 231 300 100" style="enable-background:new -329 231 300 100;" xml:space="preserve">
<style type="text/css">
	.st0{fill:#A3001F;}
</style>
<path id="XMLID_801_" class="st0" d="M-86.7,308.5c1-0.6,1.6-1,2.3-1c1-0.1,2.2-0.2,3.1,0.2c1.4,0.6,1,1.5-0.1,2.2
	c-1,0.6-2,1-3.1,1.8c-2.6,1.9-2.7,2.7-1.1,6.5c2.5-2,5-3.9,7-6.1c0.7-0.8,0.3-2.5,0.6-3.9c0.1-0.6,0.6-1,0.8-1.5
	c0.5,0.2,0.8,0.7,1.4,0.8c0.8,0.2,1.7,0.8,2.3,0.6s1.1-1.4,1.1-2c-0.2-3.4,0.3-6.8-1.7-9.9c-0.1-0.2,0-0.6,0-1.2
	c1.6,0.5,3.1,0.8,4.4,1.4c1.5,0.7,2,1.6,1.4,3.6c-0.7,1.8-0.1,4.2-0.1,6.6c2.3-0.5,4.1-1,5.9-1.1c1.2-0.1,2.7,0,3.7,0.6
	c1.7,0.8,2,3.3,1,4.7c-1.4,1.8-2.7,3.6-4.2,5.3c-0.8,0.9-1.6,1.9-2.6,2.7c-0.3,0.3-1,0.6-1.5,0.3c-2.3-0.7-3.5,0.1-4,2.5
	c-0.5,2.5-0.9,5.1-1.5,7.6c-0.2,0-0.5,0-0.6-0.1c-0.1-2-0.2-4.2-0.3-6.2c-0.1-1.4-0.2-2.5-2.3-2c-0.6,0.1-1.6-1.1-1.9-1.9
	c-0.6-1.4-0.9-2.8-1.5-5c-4.5,4.8-8.6,9-13,13.4c-1.1-1-2.5-2.3-4-3.5c1.9-0.9,3.5-1.8,5.1-2.6c1.4-0.7,1.5-1.7,1.1-3
	c-0.3-1.2,0.1-3.2-2-3.3c-0.5,0-0.9-0.2-1.4-0.6c-1.5-0.9-1.6-1.9,0.1-2.5c2.3-0.7,2.7-1.9,2.3-4.1c-0.2-1-0.1-2.3-0.1-3.3
	c0-0.9-0.3-2.2,1.2-2c1.4,0.1,2,0.8,1.9,2.2C-86.7,305.7-86.7,306.8-86.7,308.5z M-62.3,307.6c-1.8,0.1-3.2,0.1-4.4,0.5
	c-0.7,0.1-1.8,0.8-1.8,1.2c0,0.9,0.3,1.9,0.9,2.6c1,1,1.2,1.7-0.2,2.5c-0.5,0.2-0.8,1.1-0.7,1.6c0.2,0.7,3.3,0.3,3.5-0.5
	C-64.1,313.1-63.3,310.6-62.3,307.6z M-74.2,310.7c-0.3,0.2-0.7,0.3-1,0.6c0.3,1,0.6,1.9,0.9,3c0.7-0.3,1.2-0.8,1.9-1.1
	C-73.1,312.2-73.7,311.4-74.2,310.7z M-73.4,315.2c-0.5,1-1,1.6-0.9,2c0.1,0.5,0.7,0.8,1.1,1.2c0.2-0.5,0.7-1,0.7-1.5
	C-72.5,316.6-73,316.3-73.4,315.2z"/>
<g id="XMLID_807_">
	<path id="XMLID_808_" d="M-257.2,278.8c-0.5,0.6-0.9,1.1-1.4,1.7c-0.5,0.6-0.9,1.1-1.5,1.7v-0.1l-6.5,8.4c-0.9,1-1.7,2-2.6,3.1
		c-0.9,1-1.8,2-2.6,3.1c-0.1,0.1-0.5,0.5-0.9,1.2c-0.5,0.7-1.1,1.6-1.8,2.6c-0.7,1-1.5,2-2.4,3.3c-0.9,1.1-1.7,2.3-2.4,3.3
		c-0.8,1-1.5,1.9-2,2.6c-0.6,0.8-1,1.1-1.2,1.4c-0.2,0.3-0.5,0.6-0.7,0.9c-0.2,0.2-0.5,0.6-0.7,0.8h-0.1c0.6-0.9,1-1.6,1.5-2.2
		c0.5-0.6,0.8-1.2,1.2-1.8c0.5-0.6,0.8-1.2,1.2-1.9s1-1.5,1.7-2.5c0.8-1.1,1.6-2.3,2.4-3.3c0.8-1,1.6-2.2,2.2-3.2
		c0.5-0.8,1-1.6,1.6-2.4c0.6-0.8,1.1-1.6,1.7-2.4c0-0.1-0.1-0.1-0.2-0.1c-0.1,0-0.3,0-0.5,0.1c-0.2,0.1-0.3,0.2-0.5,0.6h0.1
		c0.1,0,0.1,0,0.1,0.1c0,0,0.1,0.1,0.2,0.1c-0.2,0.2-0.3,0.3-0.6,0.5c-0.2,0.1-0.3,0.2-0.5,0.5c0.1,0.1,0.1,0.1,0.1,0.1
		c0,0.1-0.1,0.2-0.2,0.5c-0.2,0.2-0.3,0.3-0.6,0.6c-0.2,0.2-0.5,0.5-0.6,0.7c-0.2,0.2-0.2,0.5-0.2,0.7c-0.8,0.6-1.5,1.1-1.8,1.8
		c-0.3,0.7-0.8,1.5-1.1,2.4c-0.6,0.5-1,0.9-1.4,1.5c-0.2,0.5-0.6,0.9-0.9,1.4c-0.1,0.2-0.3,0.5-0.6,0.7s-0.5,0.3-0.6,0.7
		c-0.3,0.8-0.8,1.6-1.4,2.4c-0.6,0.8-1.2,1.6-1.8,2.4c-0.8,1.2-1.6,2.5-2.4,3.7c-0.8,1.2-1.6,2.5-2.4,3.9c0,0.3-0.1,0.8-0.3,1.4
		c-0.2,0.6-0.5,0.9-0.8,1.1c0-0.2,0-0.3,0-0.5c0-0.1,0.1-0.2,0.1-0.3c-0.2,0.1-0.3,0.3-0.6,0.6c-0.2,0.3-0.3,0.6-0.5,0.9
		c-0.1,0.3-0.3,0.6-0.5,0.8c-0.3,0-0.5,0.1-0.5,0.1c-0.1,0-0.1,0-0.1-0.1c0-0.1,0-0.1,0-0.1l-0.3,0.2c0,0.1-0.1,0.3-0.3,0.8
		s-0.6,0.9-0.8,1.5c-0.3,0.6-0.7,1-1,1.5c-0.3,0.5-0.7,0.7-0.9,0.8c0-0.2,0.1-0.5,0.2-0.7c0.2-0.2,0.3-0.5,0.5-0.7
		c0-0.2,0-0.5,0.1-0.6c0.1-0.1,0.2-0.2,0.3-0.5c0.1-0.1,0.2-0.3,0.5-0.5c0.1-0.2,0.3-0.5,0.6-0.7c0-0.1,0.1-0.3,0.2-0.6
		c0.2-0.3,0.5-0.6,0.7-1c0.2-0.3,0.5-0.7,0.7-1c0.2-0.3,0.3-0.7,0.3-0.9c0-0.1,0-0.1-0.1-0.2c0.1-0.2,0.2-0.3,0.3-0.6
		c0.1-0.2,0.2-0.3,0.3-0.6l0,0c0,0,0.1,0,0.2,0l-0.3,0.6c0.2-0.2,0.5-0.5,0.8-0.8c0.2-0.3,0.6-0.7,0.8-1.1s0.5-0.9,0.7-1.2
		c0.2-0.5,0.5-0.8,0.6-1.1h-0.1c-0.1,0-0.2,0.1-0.3,0.5c-0.2,0.3-0.3,0.6-0.3,0.7c-0.1-0.1-0.1-0.2-0.1-0.3c0-0.2,0.1-0.6,0.3-0.9
		c0.2-0.3,0.5-0.8,0.7-1.1h-0.1c-0.2,0.5-0.5,0.8-0.8,1.2c-0.2,0.3-0.5,0.8-0.7,1.2l0,0h-0.1c0-0.1,0-0.1,0-0.1s0,0,0-0.1
		c0,0,0-0.1-0.1-0.1l-0.5,0.9h0.3l-0.3,0.3l0,0l0,0c-0.1-0.1-0.1-0.1-0.1-0.1c-0.1,0-0.2,0.2-0.3,0.6c-0.1,0.3-0.1,0.6-0.1,0.8
		c-0.1-0.2-0.2-0.3-0.3-0.3c-0.1,0-0.2,0-0.3,0.1c-0.1,0.1-0.1,0.1-0.2,0.2c0.2-0.6,0.6-1,0.9-1.6c0.3-0.6,0.7-1,1-1.6
		c0.5-0.7,0.8-1.2,1-1.9c0.3-0.7,0.7-1.2,1-1.8c0.1-0.1,0.1-0.2,0.2-0.5c0.1-0.2,0.2-0.5,0.3-0.6c0.1-0.2,0.2-0.5,0.3-0.6
		c0.1-0.2,0.2-0.3,0.5-0.3h0.3c-0.2,0.2-0.3,0.5-0.5,0.7c-0.1,0.2-0.2,0.5-0.3,0.7h0.3c0.1-0.1,0.2-0.3,0.5-0.7
		c0.2-0.3,0.5-0.8,0.8-1.1c0.3-0.5,0.6-0.9,0.8-1.4s0.5-0.8,0.7-1.1c0.3-0.3,0.7-0.7,0.9-1c0.2-0.3,0.5-0.7,0.6-1
		c0.2-0.3,0.3-0.8,0.6-1.1c0.2-0.5,0.5-0.9,0.8-1.4l0,0c-0.2,0.3-0.5,0.7-0.7,0.9c-0.2,0.3-0.5,0.7-0.6,0.9l-0.2-0.1
		c0-0.1,0.1-0.2,0.2-0.5c0.1-0.2,0.1-0.3,0.1-0.3c0.6-0.8,1-1.5,1.5-2c0.5-0.6,0.8-1.2,1-2c-0.1-0.1-0.3,0.2-0.9,0.9
		c-0.6,0.7-1.1,1.6-1.9,2.8c-0.1,0.2-0.3,0.6-0.6,0.9c-0.2,0.3-0.5,0.7-0.7,1c-0.2,0.3-0.5,0.6-0.7,0.9c-0.2,0.2-0.5,0.5-0.7,0.6
		l0.1,0.2h-0.3c-0.3,0.6-0.7,1-0.9,1.5c-0.2,0.5-0.5,0.8-0.7,1.1c-0.2,0.3-0.5,0.7-0.7,1c-0.2,0.3-0.6,0.7-0.8,1.1
		c0,0.2-0.1,0.5-0.1,0.6c-0.1,0.1-0.2,0.2-0.5,0.3c-0.3,0.7-0.7,1.2-1.1,1.7s-0.7,0.9-0.8,1.4v-0.1l0,0c0,0-0.1,0-0.1,0.1l0.8-1.5
		c-0.1,0-0.3,0.1-0.6,0.5c-0.2,0.2-0.5,0.6-0.7,0.9c-0.2,0.3-0.5,0.8-0.7,1.1c-0.2,0.3-0.5,0.7-0.8,1V316l0.6-1.1l0.2-0.5l-0.2,0.2
		c-0.5,0.8-0.9,1.6-1.4,2.3s-0.9,1.5-1.5,2.2c-0.5,0.5-0.9,1-1.2,1.6c-0.3,0.6-0.7,1.1-1,1.8v-0.1c0-0.1,0-0.1,0-0.2
		c0-0.5,0.1-0.9,0.5-1.2c0.3-0.5,0.5-0.7,0.6-0.7c0.1-0.2,0.2-0.6,0.5-0.9c0.2-0.3,0.3-0.7,0.6-1c0.2-0.3,0.3-0.7,0.5-0.9
		c0.1-0.2,0.2-0.5,0.2-0.7c0,0,0-0.1-0.1-0.3l1.1-2.5c0.2,0,0.3-0.1,0.3-0.3v-0.1c-0.1,0.1-0.1,0.1-0.2,0.2c-0.1,0-0.1,0.1-0.1,0.1
		l0,0c-0.1,0.2-0.3,0.5-0.5,0.7c-0.1,0.2-0.2,0.5-0.2,0.7c-0.1,0.1-0.2,0.2-0.3,0.5c-0.1,0.2-0.2,0.3-0.3,0.7
		c-0.1-0.1-0.1-0.1-0.2-0.1h-0.1c0.5-1,1-2,1.7-3c0.7-1,1.1-2,1.6-3c-0.5,0.7-0.9,1.4-1.2,2c-0.3,0.7-0.7,1.1-0.9,1.7l-0.2,0.1
		c0,0,0,0,0-0.1c0,0,0,0,0-0.1c0-0.1,0-0.1,0-0.1l1.4-3.3c0.1-0.1,0.2-0.3,0.3-0.6c0.1-0.2,0.2-0.5,0.5-0.7l0,0
		c-0.1,0.1-0.1,0.2-0.2,0.3c-0.1,0.1-0.2,0.2-0.2,0.3l0,0c1.4-2.6,3-5.3,4.8-8.2c1.8-2.8,3.9-5.7,5.9-8.4c2-2.8,4.2-5.6,6.5-8.3
		s4.4-5.2,6.5-7.7c-1.7,0.7-3.2,1.1-4.5,1.1c-2.5,0-4.4-1.1-5.8-3.4h-5.9c-2.3,0-4,0-5.2-0.1c-1.2-0.1-2.2-0.1-2.8-0.2
		s-1-0.2-1.1-0.2c-0.8-0.7-0.8-0.8-0.8-0.8c0-0.1,0.1-0.1,0.5-0.1c0.3,0,0.7,0,1.2-0.1c-1.7,0-2.8,0-3.4-0.1
		c-0.6-0.1-0.9-0.3-0.9-0.6s0.2-0.3,0.7-0.5c0.5-0.1,0.9-0.1,1.2-0.1c-0.6,0-0.9-0.1-0.9-0.3c0-0.1,0-0.1,0.1-0.2
		c0.1-0.1,0.2-0.1,0.6-0.1c0.3,0,0.8-0.1,1.4-0.1c0.6,0,1.5-0.1,2.6-0.1s2.6-0.1,4.3-0.1c1.7,0,3.9-0.1,6.4-0.1
		c-0.9-2.8-1.2-6.7-1.2-11.5c0-0.6,0-1.2,0.1-2c0.1-0.8,0.2-1.6,0.3-2.5c0.2-0.9,0.5-1.7,0.7-2.5c0.3-0.8,0.7-1.6,1.1-2.3
		s1-1.2,1.6-1.6c0.7-0.5,1.4-0.6,2.3-0.6c0.1,0,0.2,0,0.5,0s0.5,0.1,0.7,0.1s0.5,0.1,0.7,0.1s0.3,0.1,0.5,0.1
		c0.3,0.2,0.7,0.7,0.9,1.4c0.2,0.7,0.3,1.6,0.5,2.5c0.1,1,0.2,2.2,0.2,3.3c0.1,1.2,0.1,2.5,0.2,3.7c0.1,1.2,0.2,2.5,0.3,3.6
		c0.1,1.1,0.3,2.2,0.7,3.2c0.3,0.9,0.7,1.7,1.2,2.2c0.5,0.6,1.1,0.8,1.8,0.8c0.5,0,1.2-0.2,2.2-0.7s1.9-1.1,3.1-1.8
		c1.1-0.8,2.3-1.6,3.5-2.6c1.2-0.9,2.5-1.9,3.6-2.8s2.3-1.8,3.3-2.6c1-0.8,1.8-1.5,2.4-2c1.1-0.9,2.4-1.9,3.6-3
		c1.2-1,2.5-1.9,3.7-2.7s2.3-1.5,3.3-2c1-0.6,1.8-0.8,2.5-0.8c0.8,0,1.1,0.5,1.1,1.2c0,0.7-0.3,1.7-0.9,3.1s-1.5,3-2.7,4.9
		c-1.2,1.9-2.8,4-4.7,6.4c-1.9,2.4-4.1,4.9-6.7,7.7l9.3,0.1h-2.6c-1.6,0-2.3,0-2.3,0s0.5,0.1,1.5,0.1c1,0,2.3,0,4,0.1
		c1.6,0,3.5,0,5.6,0.1c2,0,4.2,0.1,6.4,0.1c2.2,0,4.3,0.1,6.4,0.1s4,0.1,5.6,0.1c1.6,0,3,0.1,4,0.1s1.5,0.1,1.5,0.1
		c0,0.1-0.3,0.1-0.9,0.1h-1c-0.1,0-0.1,0-0.1,0s-0.1,0-0.2,0l0,0c0,0.1,0.2,0.1,0.6,0.1s0.7,0,0.8,0l0.8,0.1h-0.5h-0.2
		c-0.5,0-1.6,0-3.4,0.1c-1.8,0.1-4.3,0.2-7.7,0.3c-3.3,0.1-7.5,0.2-12.4,0.5c-4.9,0.1-10.8,0.2-17.5,0.3l-3,3.1L-257.2,278.8z
		 M-295.3,314.6c0-0.1,0.1-0.3,0.2-0.6c0.1-0.2,0.2-0.6,0.5-0.8c0.1-0.2,0.3-0.5,0.5-0.7c0.1-0.2,0.2-0.3,0.3-0.3
		c-0.2,0.3-0.5,0.7-0.7,1.1c-0.2,0.3-0.5,0.8-0.6,1.1v0.1H-295.3z M-295.2,317.7L-295.2,317.7l-0.1,0.2L-295.2,317.7z M-294.7,316.9
		L-294.7,316.9c0,0.1,0,0.2-0.1,0.5c-0.1,0.1-0.2,0.2-0.3,0.3c0.1-0.1,0.1-0.3,0.2-0.5c0.1-0.1,0.1-0.2,0.1-0.5
		C-294.7,316.8-294.7,316.9-294.7,316.9L-294.7,316.9z M-292,319.6c0.1-0.5,0.5-0.8,0.8-1.1l-0.6,1.1H-292
		C-291.9,319.7-291.9,319.7-292,319.6L-292,319.6z M-289,308.1c-0.1,0.2-0.1,0.3-0.1,0.5c0,0.1-0.1,0.1-0.1,0.2l-0.1,0.1
		c-0.1,0-0.1,0.1-0.2,0.3c-0.1,0.1-0.2,0.3-0.3,0.7c-0.2,0.3-0.3,0.6-0.6,0.9c-0.2,0.3-0.3,0.7-0.6,0.9c-0.1,0.3-0.2,0.5-0.2,0.6
		l0,0c0.5-0.8,1-1.5,1.4-2.2c0.5-0.7,0.9-1.4,1.4-2l0,0l0,0l0,0l0,0C-288.9,308-288.9,308-289,308.1L-289,308.1z M-290.2,309.1
		c-0.2,0.1-0.5,0.3-0.7,0.9c-0.2,0.5-0.5,0.9-0.6,1.1c0.2-0.3,0.5-0.7,0.7-0.9C-290.6,309.8-290.5,309.4-290.2,309.1z M-291.1,315.9
		L-291.1,315.9c0,0.1,0,0.2-0.1,0.2c-0.1,0.1-0.1,0.1-0.1,0.2L-291.1,315.9z M-290.6,309.1L-290.6,309.1l0.1,0.1L-290.6,309.1z
		 M-288.1,305.1c-0.1,0.1-0.2,0.3-0.5,0.6c-0.2,0.3-0.5,0.6-0.6,0.9c-0.2,0.3-0.3,0.7-0.5,0.9c-0.1,0.3-0.2,0.5-0.2,0.6l0,0
		c0.1-0.1,0.1-0.3,0.3-0.5c0.1-0.1,0.2-0.3,0.3-0.6l0,0c0-0.1,0.1-0.2,0.3-0.6c0.2-0.2,0.5-0.6,0.8-0.9c0.2-0.3,0.6-0.6,0.8-0.9
		c0.2-0.2,0.3-0.6,0.3-0.7v-0.1h-0.3c-0.1,0.1-0.2,0.2-0.2,0.3c-0.1,0.1-0.1,0.2-0.1,0.3c0.1,0.1,0.1,0.1,0.1,0.1
		c0,0.1,0,0.3-0.1,0.3c-0.1,0.1-0.2,0.2-0.3,0.3c0,0,0-0.1,0-0.2l0,0H-288.1z M-287.9,310c-0.2,0.1-0.6,0.3-1,0.7
		c-0.5,0.3-0.7,0.8-0.7,1.2v0.1c0,0.1,0,0.1-0.1,0.2c-0.1,0.1-0.1,0.2-0.1,0.3c0.3-0.5,0.7-0.9,0.9-1.2
		C-288.7,311-288.4,310.6-287.9,310c0.1,0.1,0.1,0.1,0.1,0.1C-287.9,310.1-287.9,310.1-287.9,310L-287.9,310L-287.9,310z
		 M-289.8,321.4c0-0.5,0.1-0.7,0.5-0.7C-289.6,321-289.7,321.3-289.8,321.4l0.1,0.2L-289.8,321.4z M-289.5,310.5
		c0.1-0.1,0.3-0.2,0.5-0.5c0.1-0.2,0.2-0.3,0.5-0.5c-0.3,0.1-0.5,0.2-0.6,0.5C-289.3,310.1-289.4,310.4-289.5,310.5z M-289.4,316.6
		L-289.4,316.6L-289.4,316.6z M-289.2,317.2c0-0.1,0-0.2,0-0.3c0-0.1,0.1-0.2,0.1-0.5l0,0h0.3c-0.1,0.1-0.2,0.3-0.2,0.5
		C-288.9,316.8-289,317.1-289.2,317.2z M-288.8,308l0.1-0.1v0.1c0.1-0.1,0.1-0.2,0.3-0.5c0.1-0.2,0.3-0.3,0.5-0.6
		c0.1-0.2,0.2-0.5,0.5-0.7c0.1-0.2,0.2-0.3,0.2-0.5l-0.3,0.1l0,0l-0.1-0.3c0,0.1-0.1,0.1-0.1,0.1l-0.1,0.1l-0.1,0.2v0.2l-0.2,0.1
		c0,0.1,0.1,0.1,0.1,0.1s0.1,0,0.1,0.1c-0.1,0.2-0.2,0.3-0.3,0.6c-0.1,0.1-0.2,0.3-0.2,0.5c-0.1,0.1-0.1,0.2-0.1,0.2l0,0L-288.8,308
		z M-286.3,303.7c-0.1,0.1-0.1,0.1-0.3,0.3c-0.1,0.1-0.2,0.3-0.3,0.5c-0.1,0.1-0.2,0.3-0.3,0.5c-0.1,0.1-0.1,0.2-0.1,0.2
		c0-0.1,0.2-0.2,0.5-0.6C-286.5,304.2-286.3,303.9-286.3,303.7z M-284.5,309.2c-0.3,0.7-0.7,1.2-1.1,1.8c-0.5,0.6-0.9,1.1-1.5,1.7
		v0.1c0.1,0.1,0.1,0.1,0.2,0.1l0,0l-0.3,0.6c0.6-0.7,1-1.5,1.6-2.2c0.5-0.7,0.9-1.5,1.4-2.3L-284.5,309.2z M-284.7,308
		c-0.1,0-0.2,0.1-0.2,0.2l0,0l0,0l0,0l0,0c0.1-0.1,0.2-0.2,0.2-0.3c0-0.1,0.1-0.2,0.2-0.3l0.3,0.3c0,0.1,0,0.2-0.1,0.2h-0.5V308z
		 M-283.4,308.4c-0.1,0.2-0.1,0.3-0.2,0.5c-0.1,0.1-0.2,0.3-0.2,0.6c0.1-0.1,0.2-0.3,0.3-0.6C-283.5,308.8-283.4,308.5-283.4,308.4z
		 M-283.3,308.3c0.1-0.2,0.3-0.3,0.5-0.5c0.1-0.1,0.2-0.2,0.5-0.3c-0.2,0.1-0.5,0.1-0.5,0.3C-283,307.9-283.1,308.1-283.3,308.3z
		 M-282.9,305c0-0.2,0.1-0.6,0.3-0.7c0.2-0.2,0.3-0.5,0.5-0.8c0,0.3-0.1,0.7-0.2,0.9C-282.6,304.6-282.7,304.8-282.9,305z
		 M-281.4,305.8c0.1-0.1,0.2-0.3,0.3-0.5c0.1-0.2,0.2-0.3,0.3-0.5h-0.1c-0.1,0-0.2,0.1-0.3,0.3c-0.2,0.2-0.3,0.5-0.3,0.6H-281.4z
		 M-280.8,304.7c0.1-0.2,0.1-0.3,0.2-0.6c0.1-0.1,0.2-0.2,0.3-0.5c-0.1,0.1-0.3,0.2-0.3,0.5C-280.6,304.3-280.8,304.4-280.8,304.7z
		 M-279.8,306.5c-0.1,0.2-0.3,0.5-0.5,0.7c-0.1,0.2-0.3,0.5-0.5,0.7L-279.8,306.5z M-278.1,300.6c-0.2,0.3-0.5,0.7-0.7,1
		c-0.2,0.3-0.6,0.7-0.8,1.1c0.5-0.2,0.8-0.6,0.9-1c0.2-0.5,0.5-0.8,0.8-1.1H-278.1z"/>
	<path id="XMLID_835_" d="M-247.6,305.1v-0.3c-0.5,0.7-0.8,1.2-1.1,1.8c-0.3,0.6-0.6,0.9-0.7,0.9c0,0,0,0,0-0.1c0,0,0,0,0-0.1
		l0.3-0.7v-0.7l-0.6,0.6c0-0.1,0-0.3,0-0.5c0-0.1,0-0.2,0-0.3c-0.3,0.3-0.7,0.7-1.1,1c-0.5,0.3-0.7,0.5-0.9,0.5
		c-0.1,0-0.1-0.1-0.1-0.2c0-0.2,0.2-0.8,0.7-1.6c0.5-0.9,1.4-2.2,2.7-4c-0.2,0-0.6,0.1-0.8,0.3c-0.3,0.2-0.6,0.5-0.9,0.8
		c-0.3,0.3-0.6,0.6-0.8,0.8c-0.2,0.2-0.3,0.3-0.5,0.3c0,0,0,0,0-0.1c0-0.1,0.1-0.2,0.2-0.2s0.1,0,0.2,0c0.2-0.5,0.5-1,0.6-1.6
		c0.1-0.6,0.2-1,0.2-1.5l-0.2,0.1l0.2-0.2v0.1l0.2-0.1l0.3-0.5l-0.6,0.6c0.1-0.7,0.5-1.6,1-2.8c0.6-1.1,1.1-2.5,1.8-4
		c0.7-1.5,1.5-3.1,2.3-4.8c0.8-1.7,1.7-3.4,2.4-5.1c0.8-1.7,1.5-3.2,1.9-4.2c0.5-1,0.9-1.9,1.2-2.6c0.3-0.7,0.6-1.1,0.8-1.6
		c0.2-0.3,0.5-0.8,0.7-1.2c0.2-0.5,0.5-0.9,0.8-1.5c0.3-0.6,0.7-1.2,1.1-2.2c0.5-0.9,1-2.2,1.8-3.6c0.7-1.5,1.6-3.4,2.7-5.7
		c0.6-1.1,1-2.3,1.6-3.5c0.6-1.2,1.1-2.4,1.7-3.6c0.5-0.9,0.9-1.8,1.4-2.8c0.5-1,0.9-1.9,1.4-2.8c0.5-0.9,0.8-1.6,1.1-2.2
		s0.6-0.9,0.7-0.9c0.1,0,0.3,0,0.7,0c0.7,0,1.2,0.1,1.9,0.5c0.7,0.2,1.2,0.6,1.8,1s1,0.9,1.5,1.4c0.3,0.5,0.6,0.9,0.6,1.4v1.7
		c0,0.6-0.1,1.5-0.3,2.7c-0.2,1.2-0.6,2.7-1.1,4.5s-1.4,4.1-2.4,6.7c-1,2.6-2.4,5.6-4,9c-0.3,0.7-0.8,1.5-1.2,2.5
		c-0.6,1-1.2,2.4-2.3,4c-0.9,1.7-2,3.6-3.4,6c-1.4,2.4-3,5.2-4.9,8.5l-3.1,5.2l0,0c-0.7,1.2-1.5,2.5-2.3,3.7
		c-0.8,1.4-1.6,2.7-2.4,4.1c-0.1,0.3-0.5,0.9-0.8,1.5c-0.3,0.6-0.7,1.1-0.9,1.5c0,0.2-0.1,0.3-0.2,0.3c-0.1,0.1-0.3,0.2-0.5,0.3
		l1.1-1.8v-0.7c0.5-0.9,1-1.8,1.7-2.8c0.7-1,1.2-2.2,1.8-3.1c0.6-1,1-1.8,1.5-2.6c0.3-0.8,0.6-1.2,0.6-1.5l0,0
		c-0.1,0-0.3,0.3-0.8,1.1c-0.5,0.8-1,1.7-1.7,2.8c-0.7,1.1-1.4,2.4-2.2,3.7s-1.5,2.6-2.3,3.7c-0.7,1.1-1.2,2.2-1.8,2.8
		c-0.5,0.8-0.8,1.1-0.9,1.1l0,0l8-14.5c-0.6,1-1,1.8-1.5,2.6c-0.5,0.8-0.9,1.6-1.5,2.4c-0.6,0.9-1,1.7-1.5,2.4
		c-0.5,0.8-0.9,1.4-1.2,1.8c-0.3,0.5-0.6,0.8-0.7,0.8l0,0c0-0.1,0-0.3,0.1-0.7c0.1-0.3,0.2-0.8,0.5-1.1v0.1l0.7-0.7
		c0-0.2,0.1-0.5,0.3-0.8l0.5-0.5l0.1-0.2l0.2-0.2l-0.7,0.7l-0.2,0.2l-0.1,0.2l-0.6,0.6c0.2-0.5,0.3-1,0.6-1.6
		c0.2-0.6,0.5-1.1,0.6-1.6c0.2-0.5,0.3-0.9,0.5-1.2c0.1-0.3,0.2-0.5,0.2-0.6h-0.1c-0.1,0-0.3,0.1-0.6,0.5c-0.2,0.2-0.5,0.7-0.8,1.1
		l-0.2,0.2v0.1l0.7-0.8v0.5L-247.6,305.1z M-249.6,306.6c0,0.3,0,0.7,0.1,0.9l-2,3.2l1.7-3.9L-249.6,306.6z M-250.1,304.3
		c-0.2,0.2-0.5,0.6-0.6,0.9c-0.1,0.3-0.2,0.7-0.5,1l-0.2,0.2h0.1l0.7-0.7c0.2-0.3,0.3-0.7,0.5-1.1s0.3-0.8,0.6-1L-250.1,304.3z
		 M-251.2,306.5l0.6-0.7h0.1L-251.2,306.5z M-248,297.1l-0.7,0.7c0,0.3-0.1,0.7-0.2,1c-0.1,0.3-0.3,0.7-0.6,0.9l0.2-0.1
		c0.2-0.3,0.6-0.7,0.8-1.1C-248.2,298-248,297.6-248,297.1z M-245.9,309.4c-0.7,1.2-1.1,2.2-1.1,2.5l-1.2,2l1.7-3.9L-245.9,309.4z
		 M-248,308.5c0.1-0.2,0.1-0.5,0.2-0.6L-248,308.5z M-246.6,301.3l0.1-0.3l-0.7,0.7l-0.1,0.3L-246.6,301.3z M-246,302.5l0.1-0.2
		l-0.3,0.3L-246,302.5z M-244.6,300.6l-0.9,0.9l-0.5,0.9l0.6-0.5l0.6-1l0.2-0.1C-244.6,300.7-244.6,300.7-244.6,300.6
		C-244.6,300.7-244.6,300.6-244.6,300.6z M-245.7,295.8l-0.2,0.2c0,0,0,0,0.1,0c0,0,0,0,0.1,0L-245.7,295.8z M-243,297.1l0.3-0.5
		l-1,1.1L-243,297.1z"/>
	<path id="XMLID_848_" d="M-206.3,268.7c-1.6,3-3.2,5.8-4.7,8.5s-2.8,5.1-4,7.2c-1.4,2.4-2.6,4.7-3.7,6.7c-0.3,0.6-0.8,1.1-1.1,1.8
		s-0.8,1.4-1.1,2s-0.8,1.1-1.1,1.6s-0.7,0.7-1,0.7c-0.2,0-0.3-0.1-0.3-0.5c0-0.7,0.1-1.1,0.2-1.4c0.2-0.2,0.3-0.6,0.7-1
		c-0.1,0.1-0.3,0.2-0.6,0.2c-0.2,0-0.3,0.1-0.6,0.1c-0.7,0-1.1-0.1-1.5-0.5c-0.3-0.3-0.6-0.8-0.6-1.5c0-0.6,0.2-1.1,0.7-1.8
		c-0.1,0-0.2,0-0.3,0c-0.3,0-0.7-0.1-0.9-0.3s-0.3-0.7-0.3-1.4s0.2-1.7,0.6-3c0.7-1.9,1.1-3.4,1.5-4.5c0.3-1.1,0.7-2,1-3
		c0.3-0.8,0.7-1.7,1.1-2.4c0.5-0.8,0.9-1.8,1.6-3.1c0.7-1.2,1.6-2.8,2.6-4.9s2.4-4.5,4-7.7c0.1-0.2,0.2-0.6,0.6-1.1
		c0.3-0.6,0.6-1.2,1-2c0.5-0.8,0.8-1.6,1.2-2.4c0.5-0.8,0.8-1.6,1.2-2.4c0.3-0.7,0.7-1.2,1-1.8c0.3-0.5,0.5-0.7,0.6-0.8h0.1
		c0.5-0.3,1-0.5,1.7-0.5c0.3,0,0.9,0.1,1.7,0.5c0.8,0.2,1.7,0.7,2.6,1c0.9,0.5,1.7,0.8,2.4,1.2c0.7,0.5,1.1,0.8,1.4,1.1
		c0.7,1.7,1.4,3.3,2,4.7c0.6,1.4,1.1,2.7,1.7,4.1c0.6,1.4,1,2.8,1.6,4.4s1,3.4,1.5,5.6c0.5-0.6,1-1.4,1.8-2.6c0.8-1.1,1.9-2.8,3.3-5
		v-0.1l5.8-11.5l4-7.8c0.1-0.2,0.3-0.6,0.5-0.8c0.2-0.2,0.3-0.3,0.3-0.3l0,0c0,0.1-0.1,0.3-0.2,0.8c-0.5,0.9-0.8,1.6-1.1,2.2
		s-0.6,1.1-0.9,1.7c-0.3,0.6-0.6,1.1-0.9,1.7c-0.3,0.7-0.8,1.5-1.2,2.4l0,0c0,0.1,0,0.2-0.1,0.3c-0.1,0.2-0.2,0.5-0.3,0.7
		c-0.6,1-1,2-1.5,3c-0.5,1-0.9,2-1.5,3l1.9-3.1c1.8-3.5,3.6-6.8,5.2-9.9c1.6-3.1,3.1-5.8,4.3-8.3c0.2-0.5,0.5-0.7,0.6-0.7v0.1
		c0,0.1-0.1,0.3-0.3,0.7l-0.5,0.9c0,0-0.1,0.2-0.3,0.6s-0.5,0.8-0.7,1.4c-0.2,0.6-0.6,1.1-0.9,1.8c-0.3,0.7-0.7,1.2-0.9,1.8
		c-0.3,0.6-0.6,1-0.7,1.4c-0.2,0.3-0.2,0.6-0.2,0.6c0.5-0.8,0.7-1.2,0.9-1.6c0.2-0.3,0.2-0.5,0.3-0.5c0,0.1,0,0.2-0.1,0.5l1.2-2
		c0.1-0.3,0.5-0.9,0.8-1.5s0.7-1.1,0.9-1.5c0-0.2,0.1-0.3,0.2-0.3c0.1-0.1,0.3-0.2,0.5-0.3l0,0c0,0.1-0.1,0.6-0.5,1.2
		c-0.3,0.7-0.8,1.5-1.4,2.4s-1.1,2-1.8,3.3s-1.4,2.4-2.2,3.7c-0.3,0.7-0.6,1.4-0.8,1.8s-0.3,0.8-0.3,0.8l-0.1,0.2l0,0
		c0.6-1.1,1.1-2,1.7-3c0.5-0.8,0.9-1.5,1.2-2.2c0.3-0.7,0.7-1,0.8-1.1c0.8-1.4,1.6-2.6,2.3-3.9c0.8-1.2,1.4-2.3,2-3.3
		c0.6-0.9,1-1.7,1.5-2.3c0.3-0.6,0.6-0.8,0.7-0.8l0,0l-8,14.5l0,0c0.6-1,1-1.8,1.5-2.6s0.9-1.6,1.5-2.4c0.6-0.9,1-1.7,1.5-2.4
		c0.5-0.8,0.9-1.4,1.2-1.8c0.3-0.5,0.6-0.8,0.7-0.8v0.1c0.1-0.2,0.2-0.3,0.2-0.6l0.7-0.7c0,0.2-0.1,0.6-0.3,0.8l-0.5,0.5
		c-0.1,0.1-0.2,0.5-0.5,1c-0.2,0.6-0.5,1.1-0.7,1.8c-0.2,0.7-0.6,1.4-0.8,2s-0.5,1.2-0.6,1.6l0.6-1l0.9-0.8l-0.3,0.3l-0.5,0.9
		l-0.7,0.7c-0.1,0.2-0.2,0.5-0.2,0.6s0,0.1,0.1,0.1c0.1,0,0.5-0.2,0.7-0.7c0.3-0.5,0.7-1,1-1.6c0.3-0.6,0.7-1.1,1-1.6
		c0.3-0.5,0.5-0.7,0.6-0.7c0.1,0,0.1,0.1,0.2,0.3c0.1,0.2,0.1,0.5,0.1,0.7s0,0.5-0.1,0.7c0.2-0.2,0.6-0.5,0.8-0.7
		c0.3-0.2,0.6-0.5,0.8-0.6c0.1-0.2,0.2-0.6,0.3-0.8c0.1-0.2,0.2-0.6,0.3-0.8l0.7-0.7h0.1l-0.2,0.2c-0.1,0.3-0.3,0.7-0.5,1
		c-0.1,0.3-0.3,0.7-0.5,0.9c0.1,0,0.2,0.1,0.2,0.2c0,0.2-0.2,0.8-0.7,1.6c-0.5,0.8-1.4,2.2-2.7,3.9c0.2,0,0.5-0.1,0.8-0.3
		c0.3-0.2,0.6-0.5,0.9-0.8c0.3-0.3,0.6-0.6,0.7-0.8c0.2-0.2,0.3-0.3,0.5-0.3c0.1,0,0.1,0,0.1,0.1s-0.1,0.3-0.3,0.6
		c-0.2,0.2-0.5,0.6-0.5,1l0.9-0.9l0.5-0.2l-0.7,0.7l-0.2,0.1c-0.2,0.3-0.3,0.6-0.5,0.8s-0.1,0.6-0.1,0.9c0,0.7-0.2,1.7-0.9,3.2
		c-0.6,1.5-1.2,3.1-2.2,5c-0.9,1.8-1.8,3.7-2.8,5.9c-1,2-2,4.1-3.1,5.9c-1,1.9-1.9,3.5-2.7,5c-0.8,1.5-1.4,2.5-1.7,3.2
		s-0.7,1.1-0.9,1.6c-0.2,0.3-0.5,0.7-0.7,1c-0.3,0.7-0.7,1.5-1.1,2.4c-0.5,0.9-1,2-1.6,3.2c-0.1,0.1-0.1,0.1-0.1,0.2
		c0,0.1,0,0.2-0.1,0.5c-0.1,0.1-0.1,0.3-0.2,0.5c-0.1,0.1-0.3,0.3-0.6,0.5c-0.3,0.2-0.9,0.5-1.5,0.8c-0.6,0.3-1.1,0.6-1.8,0.9
		c-0.6,0.3-1.2,0.6-1.8,0.8s-1.1,0.3-1.7,0.3c-0.6,0-1-0.1-1.2-0.5c-1.6-1.8-3-3.7-4.2-5.7c-1.1-2-2.2-4-3.1-6c-0.9-2-1.6-4.1-2.2-6
		c-0.6-2-1-3.9-1.5-5.7C-206.1,268.2-206.2,268.4-206.3,268.7z M-175.1,252.6c-0.1-0.1-0.1,0-0.3,0.2c-0.1,0.2-0.3,0.5-0.5,0.8
		c-0.1,0.2-0.3,0.7-0.5,1.2l0.5-0.8c0.1-0.2,0.3-0.5,0.5-0.7C-175.3,253.1-175.2,252.9-175.1,252.6z M-173.4,251.6
		c0.1-0.5,0.1-0.9,0.3-1.4c0.1-0.5,0.2-0.9,0.3-1.4l-0.6,0.6c-0.1,0.5-0.2,0.9-0.3,1.4c-0.1,0.5-0.2,0.9-0.3,1.5L-173.4,251.6z
		 M-173.5,256.6c0,0,0.1-0.1,0.2-0.3c0.1-0.2,0.2-0.3,0.5-0.6c0.1-0.2,0.3-0.5,0.5-0.7s0.2-0.3,0.3-0.6l-0.6,0.6
		c-0.2,0.2-0.3,0.3-0.5,0.3L-173.5,256.6z M-171.7,253.7c0,0,0-0.1,0.1-0.1v-0.1l-0.5,0.5c0.1,0,0.1,0,0.1-0.1
		C-171.8,253.8-171.8,253.8-171.7,253.7z M-171.5,240v-0.7l2.4-3.9l-1.7,3.9L-171.5,240z M-170.3,251.2c-0.1,0.3-0.2,0.6-0.3,0.9
		c-0.1,0.2-0.2,0.6-0.5,0.9l-0.5,0.5c0.1,0,0.1,0,0.2,0c0.1,0,0.2,0,0.2,0c0.1,0,0.2-0.1,0.2-0.2L-170.3,251.2z M-171.1,252.6
		C-171.1,252.6-171.1,252.8-171.1,252.6L-171.1,252.6z M-170.4,245.5V245l0.7-0.7v0.5L-170.4,245.5z M-168.3,243.4v-0.7l2.4-3.9
		l-1.7,3.9L-168.3,243.4z"/>
	<path id="XMLID_859_" d="M-166.4,289.2c0.3,0,0.8,0,1.1,0c0.5,0,0.9,0,1.4,0c0.7,0,1.7,0,3.1,0c1.4,0,2.7,0.1,4.4,0.1
		c1.6,0,3.3,0.1,5,0.1c1.7,0,3.4,0.1,5,0.1c1.6,0,3,0.1,4.3,0.1c1.2,0,2.3,0,2.8,0c0,0-0.3,0-1,0.1c-0.7,0.1-1.6,0.1-2.5,0.2
		c-0.9,0.1-1.8,0.2-2.7,0.2c-0.9,0.1-1.5,0.1-1.7,0.1h-0.1c0.1,0.1,0.6,0.2,1.2,0.2c0.7,0,1.5,0,2.5,0c1,0,2,0,3.2,0
		s2.2-0.1,3.1-0.1c0.9,0,1.7-0.1,2.4-0.1c0.7,0,1,0,1.1,0c0.2,0,0.5,0,0.7,0.1c0.3,0,0.5,0.1,0.5,0.2c0,0.1-0.1,0.2-0.3,0.2
		c-0.1,0-0.2,0-0.5,0c-0.2,0-0.3,0-0.6,0c-0.2,0-0.5,0-0.6,0.1c-0.1,0.1-0.2,0.2-0.2,0.5c0,0.1-0.2,0.1-0.8,0.1s-1.1,0-1.7,0
		s-1.1,0-1.7,0s-0.8,0-0.8,0.1c0,0.1,0.1,0.2,0.5,0.2c0.2,0,0.6,0.1,0.9,0.1s0.7,0.1,0.9,0.1s0.5,0.1,0.5,0.1c0,0.1,0,0.1-0.1,0.1
		c-0.5,0-0.8,0-1.1-0.1c-0.3,0-0.7-0.1-0.9-0.1c-0.1,0-0.3-0.1-0.3-0.3s-0.2-0.2-0.2-0.2l0,0v0.2v0.1v0.1c-0.1,0.1-0.3,0.2-0.7,0.2
		c-0.2,0-0.6,0-0.8-0.1c-0.2,0-0.5-0.1-0.7-0.1c-0.1,0-0.2,0.1-0.5,0.3s-0.5,0.3-0.8,0.3c-0.1,0-0.1,0-0.1,0h-0.1
		c0.5,0.1,0.8,0.1,1,0.1s0.6,0.1,0.8,0.1c0.2,0,0.3,0.1,0.5,0.1c0,0.1-0.1,0.1-0.5,0.1c-0.2,0-0.6,0-0.9,0c-0.2,0-0.3,0-0.5,0
		s-0.2,0-0.2,0c-0.1,0-0.3,0-0.5,0c-0.1,0-0.2,0.1-0.2,0.2c0,0.1,0.2,0.1,0.6,0.1s0.8,0,1.4,0.1c0.6,0,1.1,0,1.8,0
		c0.7,0,1.2,0,1.8,0s1,0,1.4,0c0.3,0,0.6,0.1,0.6,0.1c-1,0.1-2.2,0.1-3.2,0.2c-0.9,0.1-1.8,0.1-2.8,0.2c-1,0.1-1.8,0.1-2.6,0.2
		c0,0.1-0.2,0.2-0.6,0.5c-0.3,0.2-0.9,0.3-1.7,0.3c-0.2,0-0.8,0.1-1.5,0.3c-0.7,0.2-1.6,0.5-2.6,0.7c-1,0.3-2,0.6-3.3,1
		c-1.1,0.3-2.3,0.7-3.4,1c-1.1,0.3-2.2,0.7-3.2,0.9c-0.9,0.2-1.7,0.5-2.4,0.7c-0.8,0.2-1.5,0.3-2.3,0.5c-0.7,0.1-1.4,0.3-1.9,0.6
		c-0.2,0.2-0.5,0.2-0.8,0.2c-0.6,0-1.1-0.2-1.8-0.8c-0.7-0.6-1.4-1.2-2-2.2c-0.7-0.9-1.4-1.8-2-2.8c-0.7-1-1.2-2-1.8-3
		s-1-1.8-1.2-2.6c-0.3-0.8-0.6-1.4-0.6-1.6c0-0.5,0.2-1.1,0.6-2c0.3-0.9,0.8-1.9,1.4-3.2c0.6-1.1,1.2-2.5,1.9-3.9
		c0.7-1.4,1.5-2.7,2.3-4.1c0.8-1.4,1.5-2.7,2.2-4.1c0.7-1.4,1.4-2.5,1.8-3.6c0.3-0.7,0.7-1.5,1.2-2.3c0.5-0.9,1-1.8,1.6-2.7
		s1.1-1.8,1.7-2.7c0.6-0.9,1.1-1.7,1.6-2.5c0.5-0.8,0.9-1.4,1.1-1.8c0.3-0.5,0.5-0.8,0.6-0.9c0.3-0.6,0.7-0.9,0.9-1.1
		s0.5-0.2,0.8-0.2c0.1,0,0.3,0,0.6,0.1c0.2,0,0.5,0.1,0.7,0.1c0.3,0,0.8-0.1,1.1-0.2c0.1,0,0.5-0.1,1-0.1c0.7-0.1,1.5-0.1,2.4-0.2
		c0.9-0.1,1.9-0.1,3-0.2c1-0.1,2-0.2,3-0.2c0.9-0.1,1.7-0.1,2.4-0.1c0.7,0,1-0.1,1-0.1c0.8,0,1.9,0,3.3,0c1.5,0,3.1-0.1,4.8-0.1
		s3.5-0.1,5.3-0.1c1.8,0,3.5-0.1,5.1-0.1c1.6,0,3-0.1,4.1-0.1c1.1,0,1.8,0,2.2,0h0.2c0,0,0,0-0.1,0c0.1,0,0.2,0,0.3,0s0.2,0,0.3,0
		c0.2,0,0.5,0,0.8,0s0.6,0,0.8,0c0.2,0,0.5,0.1,0.7,0.1c0.2,0.1,0.2,0.2,0.2,0.3c0,0.1,0,0.1-0.1,0.1s-0.2,0-0.5-0.1
		c-0.2-0.1-0.6-0.1-0.8-0.1l-0.5,0.1c0,0.1,0,0.2,0.1,0.3c0,0.1,0.1,0.3,0.1,0.6s0.1,0.3,0.1,0.6s0.1,0.3,0.1,0.5s-0.1,0.1-0.3,0.1
		c-0.1,0-0.3,0-0.7-0.1c-0.3,0-0.6-0.1-0.7-0.1c-1.6,1-3.2,1.9-4.7,2.6c-1.5,0.7-2.8,1.2-4.3,1.8c-1.5,0.5-3,0.9-4.7,1.1
		c-1.6,0.3-3.4,0.6-5.5,0.8s-4.3,0.5-6.8,0.7c-2.5,0.2-5.5,0.6-8.7,0.9c-0.2,0.3-0.6,0.8-1,1.4c-0.3,0.7-0.7,1.4-1,2
		c-0.3,0.8-0.6,1.5-0.9,2.2c-0.2,0.7-0.5,1.2-0.6,1.7c0.7,0,1.5,0,2.6,0c1,0,2.2,0,3.4,0c1.1,0,2.4,0,3.6,0.1c1.2,0,2.3,0.1,3.3,0.1
		c1.5-0.1,2.7-0.1,3.6-0.2c0.9,0,1.7,0,2.3,0c0.6,0,1,0,1.4,0s0.7,0,1,0c0.2,0,0.8,0,1.5,0c0.7,0,1.5,0,2.3,0.1
		c0.9,0,1.7,0.1,2.6,0.1s1.7,0.1,2.5,0.1c0.8,0,1.4,0.1,1.8,0.1c0.5,0,0.7,0.1,0.7,0.1s-0.3,0-0.9,0.1c-0.6,0-1.2,0-2,0
		c-0.8,0-1.5,0-2.3,0.1c-0.7,0-1.2,0.1-1.4,0.2c0.1,0.3,0.2,0.6,0.5,0.7c0.2,0.1,0.3,0.1,0.6,0.1c0.2,0,0.3,0,0.5,0.1
		c0.1,0.1,0.2,0.2,0.2,0.5c0,0.1,0,0.2-0.1,0.3v0.2c0,0.5-0.1,0.9-0.3,1.4h3.3c0.3,0,0.7,0,0.9,0.1c0.3,0.1,0.5,0.1,0.5,0.2
		c0,0.1-0.3,0.1-0.9,0.1c-0.9,0-1.6,0-2.3,0c-0.6,0-1.2,0-1.8,0c0,0.1-0.1,0.1-0.1,0.2c0,0.1-0.1,0.1-0.1,0.2c0.2,0,0.7,0,1.2,0
		s1,0,1.6,0s1,0,1.4,0.1c0.3,0,0.6,0.1,0.6,0.2c0,0.1-0.2,0.1-0.9,0.1h-1c0,0-0.2,0-0.5,0.1c-0.2,0-0.6,0.1-0.9,0.1s-0.7,0.1-1,0.1
		c-0.3,0.1-0.7,0.1-0.9,0.1c0.9,0,1.5,0,1.9,0.1c0.3,0,0.6,0,0.6,0.1c0,0.1-0.1,0-0.3,0.1c-0.2,0-0.6,0-0.9,0c-0.3,0-0.8,0-1.2,0
		c-0.5,0-0.9,0-1.4,0.1c0.1,0.1,0.1,0.2,0.2,0.3c0.5,0,1,0.1,1.5,0.1s0.9,0.1,1.4,0.1c0.5,0,0.8,0.1,1,0.1c0.2,0,0.5,0.1,0.5,0.1
		c0,0.1-0.3,0.1-0.9,0.1c-0.7,0-1.7,0.1-3.3,0.1c-0.1,0.2-0.2,0.3-0.6,0.5c-0.2,0.1-0.6,0.2-0.9,0.3c0,0-0.3,0-1,0.1
		c-0.7,0.1-1.7,0.1-3,0.2c-1.2,0.1-2.6,0.2-4.3,0.3c-1.6,0.1-3.3,0.2-5.1,0.3c-1.7,0.1-3.5,0.2-5.2,0.3c-1.7,0.1-3.3,0.2-4.8,0.3
		c-1.5,0.1-2.7,0.2-3.7,0.2c-1,0.1-1.8,0.1-2.2,0.1c-0.5,1.1-0.9,2-1.4,3c-0.5,0.9-0.9,1.6-1.4,2.4c-0.5,0.7-0.9,1.4-1.2,1.9
		c-0.5,0.6-0.8,1.1-1,1.7v0.2c0,0.1,0,0.2,0,0.3h0.8V289.2z M-150.6,273.7c-0.7,0-1.5,0-2.4,0.1c-1,0-1.9,0-3,0.1
		c-1,0-2.2,0.1-3.5,0.1h1.2c0.6,0,1.6,0,2.8,0.1C-154.1,274-152.5,273.9-150.6,273.7z M-152.2,270L-152.2,270
		c-0.5-0.1-1-0.1-1.5-0.2c-0.5,0-0.9-0.1-1.4-0.1c-0.5-0.1-0.9-0.1-1.2-0.2v0.3c0,0.2,0.1,0.5,0.2,0.5s0.2,0,0.2,0l0.1-0.1
		c0.6,0,1,0,1.5,0.1c0.5,0,1,0.1,1.6,0.1C-152.4,270.3-152.3,270.1-152.2,270z M-145.9,293c0,0.1,0,0.2,0.1,0.3c0.2,0,0.5,0,0.7,0
		c0.2,0,0.3-0.1,0.3-0.3H-145.9z M-141,293.3c0-0.1,0.2-0.1,0.6-0.1s0.7,0,1,0c0.3,0,0.6,0,0.7,0c0.1,0,0.1,0.1,0.1,0.1
		s0,0.1-0.1,0.1c-0.1,0-0.3,0-0.7,0s-0.7,0-1,0C-140.9,293.4-141,293.4-141,293.3z M-140,269.7h-0.1c0,0-0.1,0-0.2,0
		c0.5,0.1,0.9,0.2,1.1,0.3c0.2,0.1,0.6,0.2,0.7,0.3c0.2,0.1,0.3,0.2,0.5,0.2c0.1,0.1,0.3,0.1,0.7,0.1c0.1,0,0.3,0.1,0.6,0.2
		c0.2,0.1,0.5,0.2,0.9,0.2c0,0,0.1-0.1,0.1-0.2c0-0.1,0-0.3,0-0.6c0-0.1,0-0.2-0.1-0.3c-0.1-0.1-0.2-0.1-0.5-0.1L-140,269.7z
		 M-131.4,270.6c0-0.3-0.1-0.5-0.3-0.6c-0.2-0.1-0.5-0.1-0.8-0.2c-0.3,0-0.7,0-1,0c-0.3,0-0.8,0-1.1-0.1c0.3,0.3,0.6,0.6,0.7,0.8
		c0.1,0.2,0.2,0.3,0.2,0.5c0,0.1,0.1,0.2,0.2,0.2c0.1,0,0.2,0,0.6,0c0,0,0.1,0,0.3,0c0.2,0,0.3,0,0.6-0.1c0.2,0,0.3-0.1,0.6-0.2
		C-131.5,270.8-131.4,270.7-131.4,270.6z M-128.1,290c-0.1,0-0.3,0-0.6,0.1c-0.2,0-0.3,0-0.6,0c-0.3,0-0.6,0-0.7-0.1
		c0.1-0.1,0.3-0.2,0.6-0.3c0.2,0,0.5-0.1,0.7-0.1c0.3,0,0.6,0.1,0.6,0.2C-128,289.9-128,289.9-128.1,290z"/>
	<path id="XMLID_868_" d="M-82.7,252.6c1.5,0.5,2.8,1.1,4.1,2c1.2,0.8,2.3,1.8,3.2,3.1c0.9,1.2,1.6,2.6,2,4.3
		c0.5,1.6,0.7,3.5,0.7,5.7c0,2.4-0.2,4.8-0.8,7h2.7c0.1,0,0.2,0,0.3,0c0,0,0,0,0.1,0c0,0,0,0,0.1,0c0,0,0.1,0,0.2,0s0.2,0,0.3,0
		c0.2,0,0.3,0,0.5,0h-0.3l0,0l0,0h0.1l0,0l0,0c-0.1,0-0.2,0-0.3,0c-0.1,0-0.2,0-0.2,0h-0.1c-0.1,0-0.6,0.1-1.1,0.1
		c-0.7,0-1.4,0.1-2.2,0.1c-1,3.9-2.6,7.4-4.9,10.5c-2.3,3.1-5.1,5.7-8.3,7.8c-3.2,2.2-6.8,3.9-10.7,5s-8,1.7-12,1.7
		c-2.5,0-5-0.3-7.3-0.9c-2.3-0.6-4.3-1.5-6-2.8s-3.1-3.1-4.1-5.1c-1-2.2-1.5-4.7-1.5-7.7c0-3.2,0.5-6.1,1.4-9
		c0.9-2.8,2.2-5.3,3.9-7.7c1.6-2.4,3.5-4.4,5.7-6.2c2.2-1.8,4.5-3.4,7.2-4.8c2.5-1.4,5.2-2.4,8-3.2c2.7-0.8,5.6-1.2,8.4-1.5
		c0.1-0.3,0.3-0.7,0.6-0.9c0.3-0.2,0.8-0.3,1.5-0.3c0.7,0,1.5,0.1,2.3,0.2c0.9,0.2,1.7,0.3,2.6,0.7c0.9,0.2,1.7,0.6,2.4,0.8
		c0.8,0.2,1.4,0.5,1.7,0.7L-82.7,252.6z M-96.7,261.7c0,0,0-0.1-0.1-0.1s-0.1-0.1-0.1-0.2c0-0.1,0.1-0.2,0.2-0.3
		c0.1-0.1,0.1-0.2,0.2-0.2l0.9,0.2c-0.1-0.2-0.1-0.5-0.2-0.8c0-0.2,0-0.5,0-0.8c0-0.9,0.2-1.7,0.7-2.3c-3,0.9-5.6,2.3-8.1,3.9
		c-2.4,1.6-4.5,3.4-6.2,5.6c-1.7,2.2-3.1,4.5-4.1,7.3c-0.9,2.6-1.5,5.6-1.5,8.6c0,1.1,0.1,2.3,0.5,3.2c0.2,0.9,0.7,1.7,1.4,2.4
		c0.7,0.7,1.6,1.1,2.7,1.6c1.1,0.3,2.5,0.6,4.2,0.6c2.6,0,5-0.3,7.2-1c2.2-0.7,4-1.7,5.7-3c1.6-1.2,3-2.8,4.1-4.7
		c1.1-1.8,1.9-3.7,2.4-6h-0.9c-0.1,0-0.3,0-0.5,0s-0.3,0-0.5,0h-3.5c-0.1,0-0.3,0-0.5,0s-0.3,0-0.5,0l0,0H-96c-0.1,0-0.3,0-0.3,0
		h0.3c0.1,0,0.1,0,0.1,0h-0.3c0,0,0,0-0.1,0c0,0,0,0-0.1,0h0.1c0.1,0,0.3,0,0.3,0c0.1,0,0.2,0,0.3,0h0.1c0.1,0,0.3,0,0.7,0h0.3
		c0.1,0,0.2,0,0.3,0c0.1,0,0.2,0,0.5,0h0.6c0.3-0.1,0.9-0.2,1.7-0.2c0.3,0,0.7,0,1,0s0.7,0,1,0c0.3,0,0.6,0,0.9,0
		c0.3,0,0.6,0,0.9-0.1h0.9c0.3-1.7,0.6-3.6,0.6-5.6c0-0.9-0.1-1.8-0.2-2.6c-0.1-0.8-0.5-1.5-0.9-2c-0.5-0.6-1-1-1.7-1.4
		c-0.8-0.3-1.7-0.6-2.8-0.6c0,0.1,0,0.1,0,0.3c0,0.1-0.1,0.2-0.3,0.3c-0.2,0.1-0.5,0.2-0.7,0.2c-0.3,0-0.7-0.1-0.8-0.5
		c0,0,0-0.1-0.1-0.1s-0.1-0.1-0.1-0.2l0,0c-0.5-0.1-0.9-0.3-1.2-0.8c-0.1,0.1-0.2,0.1-0.5,0.2c-0.2,0.1-0.3,0.1-0.5,0.1
		C-96.4,262.1-96.6,262-96.7,261.7z M-99.2,275.1L-99.2,275.1l-0.1-0.2c0-0.1,0-0.1,0.1-0.2c0-0.1,0.1-0.1,0.1-0.1
		c0.5,0.1,0.7,0.2,0.9,0.3c0.1,0.1,0.2,0.1,0.2,0.1c0,0.1-0.1,0.2-0.5,0.3c-0.3,0.1-0.5,0.1-0.6,0.1s-0.1,0-0.1-0.1
		C-99.1,275.3-99.1,275.3-99.2,275.1z M-97.5,259.6L-97.5,259.6l-0.1-0.2c0-0.1,0-0.1,0.1-0.2c0-0.1,0.1-0.1,0.1-0.1
		c0.5,0.1,0.7,0.2,0.9,0.2c0.1,0.1,0.2,0.1,0.2,0.1c0,0.1-0.1,0.2-0.5,0.3c-0.3,0.1-0.5,0.1-0.6,0.1s-0.1,0-0.1-0.1
		C-97.4,259.8-97.4,259.7-97.5,259.6z M-95.6,250.8C-95.7,250.8-95.7,250.8-95.6,250.8l-0.1-0.2c0-0.1,0-0.1,0.1-0.2
		c0-0.1,0.1-0.1,0.1-0.1c0.5,0.1,0.7,0.2,0.9,0.2c0.1,0.1,0.1,0.1,0.1,0.1c0,0.1-0.1,0.2-0.5,0.3s-0.5,0.1-0.6,0.1s-0.1,0-0.1-0.1
		C-95.5,251.1-95.6,250.9-95.6,250.8z"/>
</g>
</svg>
