<?xml version="1.0" encoding="utf-8"?>
<!-- Generator: Adobe Illustrator 19.0.0, SVG Export Plug-In . SVG Version: 6.00 Build 0)  -->
<svg version="1.1" id="Calque_1" xmlns="http://www.w3.org/2000/svg" xmlns:xlink="http://www.w3.org/1999/xlink" x="0px" y="0px"
	 viewBox="0 0 300 100" style="enable-background:new 0 0 300 100;" xml:space="preserve">
<style type="text/css">
	.st0{fill:#A3001F;}
</style>
<path id="XMLID_801_" class="st0" d="M269.8,80c0.9-0.5,1.4-0.9,2-0.9c0.9-0.1,1.9-0.2,2.7,0.2c1.2,0.5,0.9,1.3-0.1,1.9
	c-0.9,0.5-1.8,0.9-2.7,1.6c-2.3,1.7-2.4,2.4-1,5.7c2.2-1.8,4.4-3.4,6.2-5.4c0.6-0.7,0.3-2.2,0.5-3.4c0.1-0.5,0.5-0.9,0.7-1.3
	c0.4,0.2,0.7,0.6,1.2,0.7c0.7,0.2,1.5,0.7,2,0.5c0.5-0.2,1-1.2,1-1.8c-0.2-3,0.3-6-1.5-8.7c-0.1-0.2,0-0.5,0-1.1
	c1.4,0.4,2.7,0.7,3.9,1.2c1.3,0.6,1.8,1.4,1.2,3.2c-0.6,1.6-0.1,3.7-0.1,5.8c2-0.4,3.6-0.9,5.2-1c1.1-0.1,2.4,0,3.3,0.5
	c1.5,0.7,1.8,2.9,0.9,4.1c-1.2,1.6-2.4,3.2-3.7,4.7c-0.7,0.8-1.4,1.7-2.3,2.4c-0.3,0.3-0.9,0.5-1.3,0.3c-2-0.6-3.1,0.1-3.5,2.2
	c-0.4,2.2-0.8,4.5-1.3,6.7c-0.2,0-0.4,0-0.5-0.1c-0.1-1.8-0.2-3.7-0.3-5.5c-0.1-1.2-0.2-2.2-2-1.8c-0.5,0.1-1.4-1-1.7-1.7
	c-0.5-1.2-0.8-2.5-1.3-4.4c-4,4.2-7.6,7.9-11.4,11.8c-1-0.9-2.2-2-3.5-3.1c1.7-0.8,3.1-1.6,4.5-2.3c1.2-0.6,1.3-1.5,1-2.6
	c-0.3-1.1,0.1-2.8-1.8-2.9c-0.4,0-0.8-0.2-1.2-0.5c-1.3-0.8-1.4-1.7,0.1-2.2c2-0.6,2.4-1.7,2-3.6c-0.2-0.9-0.1-2-0.1-2.9
	c0-0.8-0.3-1.9,1.1-1.8c1.2,0.1,1.8,0.7,1.7,1.9C269.8,77.5,269.8,78.5,269.8,80z M291.3,79.2c-1.6,0.1-2.8,0.1-3.9,0.4
	c-0.6,0.1-1.6,0.7-1.6,1.1c0,0.8,0.3,1.7,0.8,2.3c0.9,0.9,1.1,1.5-0.2,2.2c-0.4,0.2-0.7,1-0.6,1.4c0.2,0.6,2.9,0.3,3.1-0.4
	C289.7,84,290.4,81.8,291.3,79.2z M280.8,81.9c-0.3,0.2-0.6,0.3-0.9,0.5c0.3,0.9,0.5,1.7,0.8,2.6c0.6-0.3,1.1-0.7,1.7-1
	C281.8,83.2,281.3,82.5,280.8,81.9z M281.5,85.9c-0.4,0.9-0.9,1.4-0.8,1.8c0.1,0.4,0.6,0.7,1,1.1c0.2-0.4,0.6-0.9,0.6-1.3
	C282.3,87.1,281.9,86.8,281.5,85.9z"/>
<g id="XMLID_6_">
	<g id="XMLID_5_">
		<rect id="XMLID_410_" x="17.2" y="31.2" width="22.1" height="5.4"/>
		<rect id="XMLID_409_" x="17.2" y="42.4" width="22.1" height="5.4"/>
		<rect id="XMLID_408_" x="17.2" y="53.6" width="22.1" height="5.4"/>
		<rect id="XMLID_407_" x="17.2" y="64.9" width="22.1" height="5.4"/>
		<rect id="XMLID_406_" x="17.2" y="76.1" width="22.1" height="5.4"/>
		<rect id="XMLID_405_" x="17.2" y="19.9" width="22.1" height="5.4"/>
	</g>
	<g id="XMLID_1_">
		<rect id="XMLID_404_" x="47.9" y="31.2" width="22.1" height="5.4"/>
		<rect id="XMLID_403_" x="47.9" y="42.4" width="22.1" height="5.4"/>
		<rect id="XMLID_14_" x="47.9" y="53.6" width="22.1" height="5.4"/>
		<rect id="XMLID_4_" x="47.9" y="64.9" width="22.1" height="5.4"/>
		<rect id="XMLID_3_" x="47.9" y="76.1" width="22.1" height="5.4"/>
		<rect id="XMLID_2_" x="47.9" y="19.9" width="22.1" height="5.4"/>
	</g>
</g>
<g id="XMLID_807_">
	<path id="XMLID_808_" d="M119.7,53.8c-0.4,0.5-0.8,1-1.2,1.5c-0.4,0.5-0.8,1-1.3,1.5l0-0.1l-5.7,7.4c-0.8,0.9-1.5,1.8-2.3,2.7
		c-0.8,0.9-1.6,1.8-2.3,2.7c-0.1,0.1-0.4,0.4-0.8,1.1c-0.4,0.6-1,1.4-1.6,2.3c-0.6,0.9-1.3,1.8-2.1,2.9c-0.8,1-1.5,2-2.1,2.9
		c-0.7,0.9-1.3,1.7-1.8,2.3c-0.5,0.7-0.9,1-1.1,1.2c-0.2,0.3-0.4,0.5-0.6,0.8c-0.2,0.2-0.4,0.5-0.6,0.7l-0.1,0
		c0.5-0.8,0.9-1.4,1.3-1.9c0.4-0.5,0.7-1.1,1.1-1.6c0.4-0.5,0.7-1.1,1.1-1.7c0.4-0.6,0.9-1.3,1.5-2.2c0.7-1,1.4-2,2.1-2.9
		c0.7-0.9,1.4-1.9,1.9-2.8c0.4-0.7,0.9-1.4,1.4-2.1c0.5-0.7,1-1.4,1.5-2.1c0-0.1-0.1-0.1-0.2-0.1c-0.1,0-0.3,0-0.4,0.1
		c-0.2,0.1-0.3,0.2-0.4,0.5l0.1,0c0.1,0,0.1,0,0.1,0.1c0,0,0.1,0.1,0.2,0.1c-0.2,0.2-0.3,0.3-0.5,0.4c-0.2,0.1-0.3,0.2-0.4,0.4
		c0.1,0.1,0.1,0.1,0.1,0.1c0,0.1-0.1,0.2-0.2,0.4c-0.2,0.2-0.3,0.3-0.5,0.5c-0.2,0.2-0.4,0.4-0.5,0.6c-0.2,0.2-0.2,0.4-0.2,0.6
		c-0.7,0.5-1.3,1-1.6,1.6c-0.3,0.6-0.7,1.3-1,2.1c-0.5,0.4-0.9,0.8-1.2,1.3c-0.2,0.4-0.5,0.8-0.8,1.2c-0.1,0.2-0.3,0.4-0.5,0.6
		c-0.2,0.2-0.4,0.3-0.5,0.6c-0.3,0.7-0.7,1.4-1.2,2.1c-0.5,0.7-1.1,1.4-1.6,2.1c-0.7,1.1-1.4,2.2-2.1,3.3c-0.7,1.1-1.4,2.2-2.1,3.4
		c0,0.3-0.1,0.7-0.3,1.2c-0.2,0.5-0.4,0.8-0.7,1c0-0.2,0-0.3,0-0.4c0-0.1,0.1-0.2,0.1-0.3c-0.2,0.1-0.3,0.3-0.5,0.5
		c-0.2,0.3-0.3,0.5-0.4,0.8c-0.1,0.3-0.3,0.5-0.4,0.7C90.1,91.9,90,92,90,92c-0.1,0-0.1,0-0.1-0.1c0-0.1,0-0.1,0-0.1L89.6,92
		c0,0.1-0.1,0.3-0.3,0.7c-0.2,0.4-0.5,0.8-0.7,1.3c-0.3,0.5-0.6,0.9-0.9,1.3c-0.3,0.4-0.6,0.6-0.8,0.7c0-0.2,0.1-0.4,0.2-0.6
		c0.2-0.2,0.3-0.4,0.4-0.6c0-0.2,0-0.4,0.1-0.5c0.1-0.1,0.2-0.2,0.3-0.4c0.1-0.1,0.2-0.3,0.4-0.4c0.1-0.2,0.3-0.4,0.5-0.6
		c0-0.1,0.1-0.3,0.2-0.5c0.2-0.3,0.4-0.5,0.6-0.9c0.2-0.3,0.4-0.6,0.6-0.9c0.2-0.3,0.3-0.6,0.3-0.8c0-0.1,0-0.1-0.1-0.2
		c0.1-0.2,0.2-0.3,0.3-0.5c0.1-0.2,0.2-0.3,0.3-0.5c0,0,0,0,0,0c0,0,0.1,0,0.2,0l-0.3,0.5c0.2-0.2,0.4-0.4,0.7-0.7
		c0.2-0.3,0.5-0.6,0.7-1c0.2-0.4,0.4-0.8,0.6-1.1c0.2-0.4,0.4-0.7,0.5-1c0,0-0.1,0-0.1,0c-0.1,0-0.2,0.1-0.3,0.4
		c-0.2,0.3-0.3,0.5-0.3,0.6c-0.1-0.1-0.1-0.2-0.1-0.3c0-0.2,0.1-0.5,0.3-0.8c0.2-0.3,0.4-0.7,0.6-1l-0.1,0c-0.2,0.4-0.4,0.7-0.7,1.1
		c-0.2,0.3-0.4,0.7-0.6,1.1h0l-0.1,0c0-0.1,0-0.1,0-0.1c0,0,0,0,0-0.1c0,0,0-0.1-0.1-0.1l-0.4,0.8h0.3l-0.3,0.3v0l0,0
		c-0.1-0.1-0.1-0.1-0.1-0.1c-0.1,0-0.2,0.2-0.3,0.5c-0.1,0.3-0.1,0.5-0.1,0.7c-0.1-0.2-0.2-0.3-0.3-0.3c-0.1,0-0.2,0-0.3,0.1
		c-0.1,0.1-0.1,0.1-0.2,0.2c0.2-0.5,0.5-0.9,0.8-1.4c0.3-0.5,0.6-0.9,0.9-1.4c0.4-0.6,0.7-1.1,0.9-1.7c0.3-0.6,0.6-1.1,0.9-1.6
		c0.1-0.1,0.1-0.2,0.2-0.4c0.1-0.2,0.2-0.4,0.3-0.5c0.1-0.2,0.2-0.4,0.3-0.5c0.1-0.2,0.2-0.3,0.4-0.3h0.3c-0.2,0.2-0.3,0.4-0.4,0.6
		c-0.1,0.2-0.2,0.4-0.3,0.6h0.3c0.1-0.1,0.2-0.3,0.4-0.6c0.2-0.3,0.4-0.7,0.7-1c0.3-0.4,0.5-0.8,0.7-1.2c0.2-0.4,0.4-0.7,0.6-1
		c0.3-0.3,0.6-0.6,0.8-0.9c0.2-0.3,0.4-0.6,0.5-0.9c0.2-0.3,0.3-0.7,0.5-1c0.2-0.4,0.4-0.8,0.7-1.2l0,0c-0.2,0.3-0.4,0.6-0.6,0.8
		c-0.2,0.3-0.4,0.6-0.5,0.8l-0.2-0.1c0-0.1,0.1-0.2,0.2-0.4c0.1-0.2,0.1-0.3,0.1-0.3c0.5-0.7,0.9-1.3,1.3-1.8
		c0.4-0.5,0.7-1.1,0.9-1.8c-0.1-0.1-0.3,0.2-0.8,0.8c-0.5,0.6-1,1.4-1.7,2.5c-0.1,0.2-0.3,0.5-0.5,0.8c-0.2,0.3-0.4,0.6-0.6,0.9
		c-0.2,0.3-0.4,0.5-0.6,0.8c-0.2,0.2-0.4,0.4-0.6,0.5l0.1,0.2l-0.3,0c-0.3,0.5-0.6,0.9-0.8,1.3c-0.2,0.4-0.4,0.7-0.6,1
		c-0.2,0.3-0.4,0.6-0.6,0.9c-0.2,0.3-0.5,0.6-0.7,1c0,0.2-0.1,0.4-0.1,0.5c-0.1,0.1-0.2,0.2-0.4,0.3c-0.3,0.6-0.6,1.1-1,1.5
		s-0.6,0.8-0.7,1.2c0,0,0-0.1,0-0.1l0,0c0,0-0.1,0-0.1,0.1l0.7-1.3c-0.1,0-0.3,0.1-0.5,0.4c-0.2,0.2-0.4,0.5-0.6,0.8
		c-0.2,0.3-0.4,0.7-0.6,1c-0.2,0.3-0.4,0.6-0.7,0.9l0-0.5l0.5-1l0.2-0.4l-0.2,0.2c-0.4,0.7-0.8,1.4-1.2,2c-0.4,0.6-0.8,1.3-1.3,1.9
		c-0.4,0.4-0.8,0.9-1.1,1.4c-0.3,0.5-0.6,1-0.9,1.6c0,0,0-0.1,0-0.1c0-0.1,0-0.1,0-0.2c0-0.4,0.1-0.8,0.4-1.1
		c0.3-0.4,0.4-0.6,0.5-0.6c0.1-0.2,0.2-0.5,0.4-0.8c0.2-0.3,0.3-0.6,0.5-0.9c0.2-0.3,0.3-0.6,0.4-0.8c0.1-0.2,0.2-0.4,0.2-0.6
		c0,0,0-0.1-0.1-0.3l1-2.2c0.2,0,0.3-0.1,0.3-0.3v-0.1c-0.1,0.1-0.1,0.1-0.2,0.2c-0.1,0-0.1,0.1-0.1,0.1v0c-0.1,0.2-0.3,0.4-0.4,0.6
		c-0.1,0.2-0.2,0.4-0.2,0.6c-0.1,0.1-0.2,0.2-0.3,0.4c-0.1,0.2-0.2,0.3-0.3,0.6c-0.1-0.1-0.1-0.1-0.2-0.1h-0.1
		c0.4-0.9,0.9-1.8,1.5-2.6c0.6-0.9,1-1.8,1.4-2.6c-0.4,0.6-0.8,1.2-1.1,1.8s-0.6,1-0.8,1.5l-0.2,0.1c0,0,0,0,0-0.1c0,0,0,0,0-0.1
		c0-0.1,0-0.1,0-0.1l1.2-2.9c0.1-0.1,0.2-0.3,0.3-0.5c0.1-0.2,0.2-0.4,0.4-0.6h0c-0.1,0.1-0.1,0.2-0.2,0.3c-0.1,0.1-0.2,0.2-0.2,0.3
		h0c1.2-2.3,2.6-4.7,4.2-7.2c1.6-2.5,3.4-5,5.2-7.4c1.8-2.5,3.7-4.9,5.7-7.3c2-2.4,3.9-4.6,5.7-6.8c-1.5,0.6-2.8,1-4,1
		c-2.2,0-3.9-1-5.1-3l-5.2,0c-2,0-3.5,0-4.6-0.1c-1.1-0.1-1.9-0.1-2.5-0.2s-0.9-0.2-1-0.2C87,49.4,87,49.3,87,49.3
		c0-0.1,0.1-0.1,0.4-0.1c0.3,0,0.6,0,1.1-0.1c-1.5,0-2.5,0-3-0.1c-0.5-0.1-0.8-0.3-0.8-0.5c0-0.2,0.2-0.3,0.6-0.4
		c0.4-0.1,0.8-0.1,1.1-0.1c-0.5,0-0.8-0.1-0.8-0.3c0-0.1,0-0.1,0.1-0.2c0.1-0.1,0.2-0.1,0.5-0.1c0.3,0,0.7-0.1,1.2-0.1
		c0.5,0,1.3-0.1,2.3-0.1c1,0,2.3-0.1,3.8-0.1c1.5,0,3.4-0.1,5.6-0.1c-0.8-2.5-1.1-5.9-1.1-10.1c0-0.5,0-1.1,0.1-1.8
		c0.1-0.7,0.2-1.4,0.3-2.2c0.2-0.8,0.4-1.5,0.6-2.2c0.3-0.7,0.6-1.4,1-2c0.4-0.6,0.9-1.1,1.4-1.4c0.6-0.4,1.2-0.5,2-0.5
		c0.1,0,0.2,0,0.4,0c0.2,0,0.4,0.1,0.6,0.1c0.2,0,0.4,0.1,0.6,0.1c0.2,0,0.3,0.1,0.4,0.1c0.3,0.2,0.6,0.6,0.8,1.2
		c0.2,0.6,0.3,1.4,0.4,2.2c0.1,0.9,0.2,1.9,0.2,2.9c0.1,1.1,0.1,2.2,0.2,3.3c0.1,1.1,0.2,2.2,0.3,3.2c0.1,1,0.3,1.9,0.6,2.8
		c0.3,0.8,0.6,1.5,1.1,1.9c0.4,0.5,1,0.7,1.6,0.7c0.4,0,1.1-0.2,1.9-0.6c0.8-0.4,1.7-1,2.7-1.6c1-0.7,2-1.4,3.1-2.3
		c1.1-0.8,2.2-1.7,3.2-2.5c1-0.8,2-1.6,2.9-2.3c0.9-0.7,1.6-1.3,2.1-1.8c1-0.8,2.1-1.7,3.2-2.6c1.1-0.9,2.2-1.7,3.3-2.4
		c1.1-0.7,2-1.3,2.9-1.8c0.9-0.5,1.6-0.7,2.2-0.7c0.7,0,1,0.4,1,1.1c0,0.6-0.3,1.5-0.8,2.7c-0.5,1.2-1.3,2.6-2.4,4.3
		c-1.1,1.7-2.5,3.5-4.1,5.6c-1.7,2.1-3.6,4.3-5.9,6.8l8.2,0.1h-2.3c-1.4,0-2,0-2,0s0.4,0.1,1.3,0.1c0.9,0,2,0,3.5,0.1
		c1.4,0,3.1,0,4.9,0.1c1.8,0,3.7,0.1,5.6,0.1c1.9,0,3.8,0.1,5.6,0.1c1.8,0,3.5,0.1,4.9,0.1c1.4,0,2.6,0.1,3.5,0.1
		c0.9,0,1.3,0.1,1.3,0.1c0,0.1-0.3,0.1-0.8,0.1h-0.9c-0.1,0-0.1,0-0.1,0c0,0-0.1,0-0.2,0h0c0,0.1,0.2,0.1,0.5,0.1c0.3,0,0.6,0,0.7,0
		l0.7,0.1l-0.4,0l-0.2,0c-0.4,0-1.4,0-3,0.1c-1.6,0.1-3.8,0.2-6.8,0.3c-2.9,0.1-6.6,0.2-10.9,0.4c-4.3,0.1-9.5,0.2-15.4,0.3
		l-2.6,2.7L119.7,53.8z M86.2,85.3c0-0.1,0.1-0.3,0.2-0.5c0.1-0.2,0.2-0.5,0.4-0.7c0.1-0.2,0.3-0.4,0.4-0.6c0.1-0.2,0.2-0.3,0.3-0.3
		c-0.2,0.3-0.4,0.6-0.6,1c-0.2,0.3-0.4,0.7-0.5,1v0.1H86.2z M86.3,88.1L86.3,88.1l-0.1,0.2L86.3,88.1z M86.7,87.4L86.7,87.4
		c0,0.1,0,0.2-0.1,0.4c-0.1,0.1-0.2,0.2-0.3,0.3c0.1-0.1,0.1-0.3,0.2-0.4c0.1-0.1,0.1-0.2,0.1-0.4C86.7,87.3,86.7,87.4,86.7,87.4
		C86.7,87.4,86.7,87.4,86.7,87.4z M89.1,89.7c0.1-0.4,0.4-0.7,0.7-1l-0.5,1L89.1,89.7C89.2,89.8,89.2,89.8,89.1,89.7L89.1,89.7z
		 M91.7,79.6c-0.1,0.2-0.1,0.3-0.1,0.4c0,0.1-0.1,0.1-0.1,0.2c0,0-0.1,0.1-0.1,0.1c-0.1,0-0.1,0.1-0.2,0.3c-0.1,0.1-0.2,0.3-0.3,0.6
		c-0.2,0.3-0.3,0.5-0.5,0.8c-0.2,0.3-0.3,0.6-0.5,0.8c-0.1,0.3-0.2,0.4-0.2,0.5v0c0.4-0.7,0.9-1.3,1.2-1.9c0.4-0.6,0.8-1.2,1.2-1.8
		c0,0,0,0,0,0c0,0,0,0,0,0c0,0,0,0,0,0h0C91.8,79.5,91.8,79.5,91.7,79.6C91.7,79.6,91.7,79.6,91.7,79.6z M90.7,80.5
		c-0.2,0.1-0.4,0.3-0.6,0.8c-0.2,0.4-0.4,0.8-0.5,1c0.2-0.3,0.4-0.6,0.6-0.8C90.3,81.1,90.4,80.8,90.7,80.5z M89.9,86.5L89.9,86.5
		c0,0.1,0,0.2-0.1,0.2c-0.1,0.1-0.1,0.1-0.1,0.2L89.9,86.5z M90.3,80.5L90.3,80.5l0.1,0.1L90.3,80.5z M92.5,77
		c-0.1,0.1-0.2,0.3-0.4,0.5c-0.2,0.3-0.4,0.5-0.5,0.8c-0.2,0.3-0.3,0.6-0.4,0.8c-0.1,0.3-0.2,0.4-0.2,0.5v0c0.1-0.1,0.1-0.3,0.3-0.4
		c0.1-0.1,0.2-0.3,0.3-0.5v0c0-0.1,0.1-0.2,0.3-0.5c0.2-0.2,0.4-0.5,0.7-0.8c0.2-0.3,0.5-0.5,0.7-0.8c0.2-0.2,0.3-0.5,0.3-0.6v-0.1
		l-0.3,0c-0.1,0.1-0.2,0.2-0.2,0.3c-0.1,0.1-0.1,0.2-0.1,0.3c0.1,0.1,0.1,0.1,0.1,0.1c0,0.1,0,0.3-0.1,0.3c-0.1,0.1-0.2,0.2-0.3,0.3
		c0,0,0-0.1,0-0.2V77z M92.7,81.3c-0.2,0.1-0.5,0.3-0.9,0.6c-0.4,0.3-0.6,0.7-0.6,1.1v0.1c0,0.1,0,0.1-0.1,0.2s-0.1,0.2-0.1,0.3
		c0.3-0.4,0.6-0.8,0.8-1.1C92,82.2,92.3,81.8,92.7,81.3c0.1,0.1,0.1,0.1,0.1,0.1C92.7,81.4,92.7,81.4,92.7,81.3L92.7,81.3L92.7,81.3
		z M91,91.3c0-0.4,0.1-0.6,0.4-0.6C91.2,91,91.1,91.2,91,91.3l0.1,0.2L91,91.3z M91.3,81.7c0.1-0.1,0.3-0.2,0.4-0.4
		c0.1-0.2,0.2-0.3,0.4-0.4c-0.3,0.1-0.4,0.2-0.5,0.4C91.5,81.4,91.4,81.6,91.3,81.7z M91.4,87.1L91.4,87.1
		C91.4,87.1,91.4,87.1,91.4,87.1z M91.6,87.6c0-0.1,0-0.2,0-0.3c0-0.1,0.1-0.2,0.1-0.4c0,0,0,0,0,0H92c-0.1,0.1-0.2,0.3-0.2,0.4
		C91.8,87.3,91.7,87.5,91.6,87.6z M91.9,79.5l0.1-0.1v0.1c0.1-0.1,0.1-0.2,0.3-0.4c0.1-0.2,0.3-0.3,0.4-0.5c0.1-0.2,0.2-0.4,0.4-0.6
		c0.1-0.2,0.2-0.3,0.2-0.4L93,77.7l0,0l-0.1-0.3c0,0.1-0.1,0.1-0.1,0.1c0,0-0.1,0.1-0.1,0.1l-0.1,0.2l0,0.2l-0.2,0.1
		c0,0.1,0.1,0.1,0.1,0.1c0,0,0.1,0,0.1,0.1c-0.1,0.2-0.2,0.3-0.3,0.5c-0.1,0.1-0.2,0.3-0.2,0.4c-0.1,0.1-0.1,0.2-0.1,0.2v0
		L91.9,79.5z M94.1,75.7c-0.1,0.1-0.1,0.1-0.3,0.3c-0.1,0.1-0.2,0.3-0.3,0.4c-0.1,0.1-0.2,0.3-0.3,0.4c-0.1,0.1-0.1,0.2-0.1,0.2
		c0-0.1,0.2-0.2,0.4-0.5C93.9,76.2,94.1,75.9,94.1,75.7z M95.7,80.6c-0.3,0.6-0.6,1.1-1,1.6s-0.8,1-1.3,1.5c0,0,0,0.1,0,0.1
		c0.1,0.1,0.1,0.1,0.2,0.1h0l-0.3,0.5c0.5-0.6,0.9-1.3,1.4-1.9c0.4-0.6,0.8-1.3,1.2-2L95.7,80.6z M95.5,79.5c-0.1,0-0.2,0.1-0.2,0.2
		c0,0,0,0,0,0c0,0,0,0,0,0c0,0,0,0,0,0h0c0.1-0.1,0.2-0.2,0.2-0.3c0-0.1,0.1-0.2,0.2-0.3l0.3,0.3c0,0.1,0,0.2-0.1,0.2H95.5z
		 M96.7,79.9c-0.1,0.2-0.1,0.3-0.2,0.4c-0.1,0.1-0.2,0.3-0.2,0.5c0.1-0.1,0.2-0.3,0.3-0.5C96.6,80.2,96.7,80,96.7,79.9z M96.8,79.8
		c0.1-0.2,0.3-0.3,0.4-0.4c0.1-0.1,0.2-0.2,0.4-0.3c-0.2,0.1-0.4,0.1-0.4,0.3C97,79.4,96.9,79.6,96.8,79.8z M97.1,76.9
		c0-0.2,0.1-0.5,0.3-0.6c0.2-0.2,0.3-0.4,0.4-0.7c0,0.3-0.1,0.6-0.2,0.8C97.4,76.5,97.3,76.7,97.1,76.9z M98.4,77.6
		c0.1-0.1,0.2-0.3,0.3-0.4c0.1-0.2,0.2-0.3,0.3-0.4l-0.1,0c-0.1,0-0.2,0.1-0.3,0.3c-0.2,0.2-0.3,0.4-0.3,0.5L98.4,77.6z M99,76.6
		c0.1-0.2,0.1-0.3,0.2-0.5c0.1-0.1,0.2-0.2,0.3-0.4c-0.1,0.1-0.3,0.2-0.3,0.4C99.1,76.3,99,76.4,99,76.6z M99.8,78.2
		c-0.1,0.2-0.3,0.4-0.4,0.6c-0.1,0.2-0.3,0.4-0.4,0.6L99.8,78.2z M101.3,73c-0.2,0.3-0.4,0.6-0.6,0.9c-0.2,0.3-0.5,0.6-0.7,1
		c0.4-0.2,0.7-0.5,0.8-0.9c0.2-0.4,0.4-0.7,0.7-1L101.3,73z"/>
	<path id="XMLID_835_" d="M128.2,77v-0.3c-0.4,0.6-0.7,1.1-1,1.6c-0.3,0.5-0.5,0.8-0.6,0.8c0,0,0,0,0-0.1c0,0,0,0,0-0.1l0.3-0.6
		v-0.6l-0.5,0.5c0-0.1,0-0.3,0-0.4c0-0.1,0-0.2,0-0.3c-0.3,0.3-0.6,0.6-1,0.9c-0.4,0.3-0.6,0.4-0.8,0.4c-0.1,0-0.1-0.1-0.1-0.2
		c0-0.2,0.2-0.7,0.6-1.4c0.4-0.8,1.2-1.9,2.4-3.5c-0.2,0-0.5,0.1-0.7,0.3c-0.3,0.2-0.5,0.4-0.8,0.7c-0.3,0.3-0.5,0.5-0.7,0.7
		c-0.2,0.2-0.3,0.3-0.4,0.3c0,0,0,0,0-0.1c0-0.1,0.1-0.2,0.2-0.2c0.1,0,0.1,0,0.2,0c0.2-0.4,0.4-0.9,0.5-1.4
		c0.1-0.5,0.2-0.9,0.2-1.3l-0.2,0.1l0.2-0.2l0,0.1l0.2-0.1l0.3-0.4l-0.5,0.5c0.1-0.6,0.4-1.4,0.9-2.5c0.5-1,1-2.2,1.6-3.5
		c0.6-1.3,1.3-2.7,2-4.2c0.7-1.5,1.5-3,2.1-4.5c0.7-1.5,1.3-2.8,1.7-3.7c0.4-0.9,0.8-1.7,1.1-2.3c0.3-0.6,0.5-1,0.7-1.4
		c0.2-0.3,0.4-0.7,0.6-1.1c0.2-0.4,0.4-0.8,0.7-1.3c0.3-0.5,0.6-1.1,1-1.9c0.4-0.8,0.9-1.9,1.6-3.2c0.6-1.3,1.4-3,2.4-5
		c0.5-1,0.9-2,1.4-3.1c0.5-1.1,1-2.1,1.5-3.2c0.4-0.8,0.8-1.6,1.2-2.5c0.4-0.9,0.8-1.7,1.2-2.5c0.4-0.8,0.7-1.4,1-1.9
		c0.3-0.5,0.5-0.8,0.6-0.8c0.1,0,0.3,0,0.6,0c0.6,0,1.1,0.1,1.7,0.4c0.6,0.2,1.1,0.5,1.6,0.9c0.5,0.4,0.9,0.8,1.3,1.2
		c0.3,0.4,0.5,0.8,0.5,1.2v1.5c0,0.5-0.1,1.3-0.3,2.4c-0.2,1.1-0.5,2.4-1,4c-0.5,1.6-1.2,3.6-2.1,5.9c-0.9,2.3-2.1,4.9-3.5,7.9
		c-0.3,0.6-0.7,1.3-1.1,2.2c-0.5,0.9-1.1,2.1-2,3.5c-0.8,1.5-1.8,3.2-3,5.3c-1.2,2.1-2.6,4.6-4.3,7.5l-2.7,4.6v0
		c-0.6,1.1-1.3,2.2-2,3.3c-0.7,1.2-1.4,2.4-2.1,3.6c-0.1,0.3-0.4,0.8-0.7,1.3c-0.3,0.5-0.6,1-0.8,1.3c0,0.2-0.1,0.3-0.2,0.3
		c-0.1,0.1-0.3,0.2-0.4,0.3l1-1.6v-0.6c0.4-0.8,0.9-1.6,1.5-2.5s1.1-1.9,1.6-2.7c0.5-0.9,0.9-1.6,1.3-2.3c0.3-0.7,0.5-1.1,0.5-1.3v0
		c-0.1,0-0.3,0.3-0.7,1c-0.4,0.7-0.9,1.5-1.5,2.5c-0.6,1-1.2,2.1-1.9,3.3c-0.7,1.2-1.3,2.3-2,3.3c-0.6,1-1.1,1.9-1.6,2.5
		c-0.4,0.7-0.7,1-0.8,1l0,0l7-12.8c-0.5,0.9-0.9,1.6-1.3,2.3c-0.4,0.7-0.8,1.4-1.3,2.1c-0.5,0.8-0.9,1.5-1.3,2.1
		c-0.4,0.7-0.8,1.2-1.1,1.6c-0.3,0.4-0.5,0.7-0.6,0.7c0,0,0,0,0,0c0-0.1,0-0.3,0.1-0.6c0.1-0.3,0.2-0.7,0.4-1v0.1l0.6-0.6
		c0-0.2,0.1-0.4,0.3-0.7l0.4-0.4l0.1-0.2l0.2-0.2l-0.6,0.6l-0.2,0.2l-0.1,0.2l-0.5,0.5c0.2-0.4,0.3-0.9,0.5-1.4
		c0.2-0.5,0.4-1,0.5-1.4c0.2-0.4,0.3-0.8,0.4-1.1c0.1-0.3,0.2-0.4,0.2-0.5c0,0-0.1,0-0.1,0c-0.1,0-0.3,0.1-0.5,0.4
		c-0.2,0.2-0.4,0.6-0.7,1l-0.2,0.2v0.1l0.6-0.7v0.4L128.2,77z M126.4,78.3c0,0.3,0,0.6,0.1,0.8l-1.8,2.8l1.5-3.4L126.4,78.3z
		 M126,76.3c-0.2,0.2-0.4,0.5-0.5,0.8c-0.1,0.3-0.2,0.6-0.4,0.9l-0.2,0.2h0.1l0.6-0.6c0.2-0.3,0.3-0.6,0.4-1
		c0.1-0.4,0.3-0.7,0.5-0.9L126,76.3z M125,78.2l0.5-0.6h0.1L125,78.2z M127.8,69.9l-0.6,0.6c0,0.3-0.1,0.6-0.2,0.9
		c-0.1,0.3-0.3,0.6-0.5,0.8l0.2-0.1c0.2-0.3,0.5-0.6,0.7-1C127.7,70.7,127.8,70.4,127.8,69.9z M129.7,80.8c-0.6,1.1-1,1.9-1,2.2
		l-1.1,1.8l1.5-3.4L129.7,80.8z M127.8,80c0.1-0.2,0.1-0.4,0.2-0.5L127.8,80z M129.1,73.6l0.1-0.3l-0.6,0.6l-0.1,0.3L129.1,73.6z
		 M129.6,74.7l0.1-0.2l-0.3,0.3L129.6,74.7z M130.8,73l-0.8,0.8l-0.4,0.8l0.5-0.4l0.5-0.9l0.2-0.1C130.8,73.1,130.8,73.1,130.8,73
		C130.8,73.1,130.8,73,130.8,73z M129.9,68.8l-0.2,0.2c0,0,0,0,0.1,0c0,0,0,0,0.1,0L129.9,68.8z M132.2,69.9l0.3-0.4l-0.9,1
		L132.2,69.9z"/>
	<path id="XMLID_848_" d="M164.5,44.9c-1.4,2.6-2.8,5.1-4.1,7.5c-1.3,2.4-2.5,4.5-3.5,6.3c-1.2,2.1-2.3,4.1-3.3,5.9
		c-0.3,0.5-0.7,1-1,1.6s-0.7,1.2-1,1.8c-0.3,0.6-0.7,1-1,1.4c-0.3,0.4-0.6,0.6-0.9,0.6c-0.2,0-0.3-0.1-0.3-0.4c0-0.6,0.1-1,0.2-1.2
		c0.2-0.2,0.3-0.5,0.6-0.9c-0.1,0.1-0.3,0.2-0.5,0.2c-0.2,0-0.3,0.1-0.5,0.1c-0.6,0-1-0.1-1.3-0.4c-0.3-0.3-0.5-0.7-0.5-1.3
		c0-0.5,0.2-1,0.6-1.6c-0.1,0-0.2,0-0.3,0c-0.3,0-0.6-0.1-0.8-0.3c-0.2-0.2-0.3-0.6-0.3-1.2c0-0.6,0.2-1.5,0.5-2.6
		c0.6-1.7,1-3,1.3-4c0.3-1,0.6-1.8,0.9-2.6c0.3-0.7,0.6-1.5,1-2.1c0.4-0.7,0.8-1.6,1.4-2.7c0.6-1.1,1.4-2.5,2.3-4.3
		c0.9-1.8,2.1-4,3.5-6.8c0.1-0.2,0.2-0.5,0.5-1c0.3-0.5,0.5-1.1,0.9-1.8s0.7-1.4,1.1-2.1s0.7-1.4,1.1-2.1c0.3-0.6,0.6-1.1,0.9-1.6
		c0.3-0.4,0.4-0.6,0.5-0.7c0,0,0.1,0,0.1,0c0.4-0.3,0.9-0.4,1.5-0.4c0.3,0,0.8,0.1,1.5,0.4c0.7,0.2,1.5,0.6,2.3,0.9
		c0.8,0.4,1.5,0.7,2.1,1.1c0.6,0.4,1,0.7,1.2,1c0.6,1.5,1.2,2.9,1.8,4.1c0.5,1.2,1,2.4,1.5,3.6c0.5,1.2,0.9,2.5,1.4,3.9
		s0.9,3,1.3,4.9c0.4-0.5,0.9-1.2,1.6-2.3c0.7-1,1.7-2.5,2.9-4.4c0,0,0-0.1,0-0.1l5.1-10.1l3.5-6.9c0.1-0.2,0.3-0.5,0.4-0.7
		c0.2-0.2,0.3-0.3,0.3-0.3c0,0,0,0,0,0c0,0.1-0.1,0.3-0.2,0.7c-0.4,0.8-0.7,1.4-1,1.9c-0.3,0.5-0.5,1-0.8,1.5
		c-0.3,0.5-0.5,1-0.8,1.5c-0.3,0.6-0.7,1.3-1.1,2.1c0,0,0,0,0,0c0,0.1,0,0.2-0.1,0.3c-0.1,0.2-0.2,0.4-0.3,0.6
		c-0.5,0.9-0.9,1.8-1.3,2.6c-0.4,0.9-0.8,1.8-1.3,2.6l1.7-2.7c1.6-3.1,3.2-6,4.6-8.7c1.4-2.7,2.7-5.1,3.8-7.3
		c0.2-0.4,0.4-0.6,0.5-0.6c0,0,0,0.1,0,0.1c0,0.1-0.1,0.3-0.3,0.6l-0.4,0.8c0,0-0.1,0.2-0.3,0.5c-0.2,0.3-0.4,0.7-0.6,1.2
		c-0.2,0.5-0.5,1-0.8,1.6c-0.3,0.6-0.6,1.1-0.8,1.6c-0.3,0.5-0.5,0.9-0.6,1.2c-0.2,0.3-0.2,0.5-0.2,0.5c0.4-0.7,0.6-1.1,0.8-1.4
		c0.2-0.3,0.2-0.4,0.3-0.4c0,0.1,0,0.2-0.1,0.4l1.1-1.8c0.1-0.3,0.4-0.8,0.7-1.3c0.3-0.5,0.6-1,0.8-1.3c0-0.2,0.1-0.3,0.2-0.3
		c0.1-0.1,0.3-0.2,0.4-0.3v0c0,0.1-0.1,0.5-0.4,1.1c-0.3,0.6-0.7,1.3-1.2,2.1c-0.5,0.8-1,1.8-1.6,2.9c-0.6,1.1-1.2,2.1-1.9,3.3
		c-0.3,0.6-0.5,1.2-0.7,1.6c-0.2,0.4-0.3,0.7-0.3,0.7l-0.1,0.2v0c0.5-1,1-1.8,1.5-2.6c0.4-0.7,0.8-1.3,1.1-1.9
		c0.3-0.6,0.6-0.9,0.7-1c0.7-1.2,1.4-2.3,2-3.4c0.7-1.1,1.2-2,1.8-2.9c0.5-0.8,0.9-1.5,1.3-2c0.3-0.5,0.5-0.7,0.6-0.7h0l-7,12.8v0
		c0.5-0.9,0.9-1.6,1.3-2.3c0.4-0.7,0.8-1.4,1.3-2.1c0.5-0.8,0.9-1.5,1.3-2.1c0.4-0.7,0.8-1.2,1.1-1.6c0.3-0.4,0.5-0.7,0.6-0.7v0.1
		c0.1-0.2,0.2-0.3,0.2-0.5l0.6-0.6c0,0.2-0.1,0.5-0.3,0.7l-0.4,0.4c-0.1,0.1-0.2,0.4-0.4,0.9c-0.2,0.5-0.4,1-0.6,1.6
		c-0.2,0.6-0.5,1.2-0.7,1.8c-0.2,0.6-0.4,1.1-0.5,1.4l0.5-0.9l0.8-0.7l-0.3,0.3l-0.4,0.8l-0.6,0.6c-0.1,0.2-0.2,0.4-0.2,0.5
		c0,0.1,0,0.1,0.1,0.1c0.1,0,0.4-0.2,0.6-0.6c0.3-0.4,0.6-0.9,0.9-1.4c0.3-0.5,0.6-1,0.9-1.4c0.3-0.4,0.4-0.6,0.5-0.6
		c0.1,0,0.1,0.1,0.2,0.3c0.1,0.2,0.1,0.4,0.1,0.6c0,0.2,0,0.4-0.1,0.6c0.2-0.2,0.5-0.4,0.7-0.6c0.3-0.2,0.5-0.4,0.7-0.5
		c0.1-0.2,0.2-0.5,0.3-0.7c0.1-0.2,0.2-0.5,0.3-0.7l0.6-0.6h0.1l-0.2,0.2c-0.1,0.3-0.3,0.6-0.4,0.9c-0.1,0.3-0.3,0.6-0.4,0.8
		c0.1,0,0.2,0.1,0.2,0.2c0,0.2-0.2,0.7-0.6,1.4c-0.4,0.7-1.2,1.9-2.4,3.4c0.2,0,0.4-0.1,0.7-0.3c0.3-0.2,0.5-0.4,0.8-0.7
		c0.3-0.3,0.5-0.5,0.6-0.7c0.2-0.2,0.3-0.3,0.4-0.3c0.1,0,0.1,0,0.1,0.1c0,0.1-0.1,0.3-0.3,0.5c-0.2,0.2-0.4,0.5-0.4,0.9l0.8-0.8
		l0.4-0.2l-0.6,0.6l-0.2,0.1c-0.2,0.3-0.3,0.5-0.4,0.7c-0.1,0.2-0.1,0.5-0.1,0.8c0,0.6-0.2,1.5-0.8,2.8c-0.5,1.3-1.1,2.7-1.9,4.4
		c-0.8,1.6-1.6,3.3-2.5,5.2c-0.9,1.8-1.8,3.6-2.7,5.2c-0.9,1.7-1.7,3.1-2.4,4.4c-0.7,1.3-1.2,2.2-1.5,2.8c-0.3,0.6-0.6,1-0.8,1.4
		c-0.2,0.3-0.4,0.6-0.6,0.9c-0.3,0.6-0.6,1.3-1,2.1c-0.4,0.8-0.9,1.8-1.4,2.8c-0.1,0.1-0.1,0.1-0.1,0.2c0,0.1,0,0.2-0.1,0.4
		c-0.1,0.1-0.1,0.3-0.2,0.4c-0.1,0.1-0.3,0.3-0.5,0.4c-0.3,0.2-0.8,0.4-1.3,0.7c-0.5,0.3-1,0.5-1.6,0.8c-0.5,0.3-1.1,0.5-1.6,0.7
		c-0.5,0.2-1,0.3-1.5,0.3c-0.5,0-0.9-0.1-1.1-0.4c-1.4-1.6-2.6-3.3-3.7-5c-1-1.8-1.9-3.5-2.7-5.3c-0.8-1.8-1.4-3.6-1.9-5.3
		c-0.5-1.8-0.9-3.4-1.3-5C164.7,44.5,164.6,44.7,164.5,44.9z M192,30.8c-0.1-0.1-0.1,0-0.3,0.2c-0.1,0.2-0.3,0.4-0.4,0.7
		c-0.1,0.2-0.3,0.6-0.4,1.1l0.4-0.7c0.1-0.2,0.3-0.4,0.4-0.6C191.8,31.2,191.9,31,192,30.8z M193.5,29.9c0.1-0.4,0.1-0.8,0.3-1.2
		c0.1-0.4,0.2-0.8,0.3-1.2l-0.5,0.5c-0.1,0.4-0.2,0.8-0.3,1.2c-0.1,0.4-0.2,0.8-0.3,1.3L193.5,29.9z M193.4,34.3
		c0,0,0.1-0.1,0.2-0.3c0.1-0.2,0.2-0.3,0.4-0.5c0.1-0.2,0.3-0.4,0.4-0.6c0.1-0.2,0.2-0.3,0.3-0.5l-0.5,0.5c-0.2,0.2-0.3,0.3-0.4,0.3
		L193.4,34.3z M195,31.7c0,0,0-0.1,0.1-0.1l0-0.1l-0.4,0.4c0.1,0,0.1,0,0.1-0.1C194.9,31.8,194.9,31.8,195,31.7z M195.2,19.7v-0.6
		l2.1-3.4l-1.5,3.4L195.2,19.7z M196.2,29.5c-0.1,0.3-0.2,0.5-0.3,0.8c-0.1,0.2-0.2,0.5-0.4,0.8l-0.4,0.4c0.1,0,0.1,0,0.2,0
		s0.2,0,0.2,0c0.1,0,0.2-0.1,0.2-0.2L196.2,29.5z M195.5,30.8C195.5,30.8,195.5,30.9,195.5,30.8L195.5,30.8z M196.1,24.5v-0.4
		l0.6-0.6v0.4L196.1,24.5z M198,22.7v-0.6l2.1-3.4l-1.5,3.4L198,22.7z"/>
	<path id="XMLID_859_" d="M199.7,63c0.3,0,0.7,0,1,0c0.4,0,0.8,0,1.2,0c0.6,0,1.5,0,2.7,0c1.2,0,2.4,0.1,3.9,0.1
		c1.4,0,2.9,0.1,4.4,0.1c1.5,0,3,0.1,4.4,0.1c1.4,0,2.6,0.1,3.8,0.1c1.1,0,2,0,2.5,0c0,0-0.3,0-0.9,0.1c-0.6,0.1-1.4,0.1-2.2,0.2
		c-0.8,0.1-1.6,0.2-2.4,0.2c-0.8,0.1-1.3,0.1-1.5,0.1h-0.1c0.1,0.1,0.5,0.2,1.1,0.2c0.6,0,1.3,0,2.2,0c0.9,0,1.8,0,2.8,0
		c1,0,1.9-0.1,2.7-0.1c0.8,0,1.5-0.1,2.1-0.1c0.6,0,0.9,0,1,0c0.2,0,0.4,0,0.6,0.1c0.3,0,0.4,0.1,0.4,0.2s-0.1,0.2-0.3,0.2
		c-0.1,0-0.2,0-0.4,0c-0.2,0-0.3,0-0.5,0c-0.2,0-0.4,0-0.5,0.1c-0.1,0.1-0.2,0.2-0.2,0.4c0,0.1-0.2,0.1-0.7,0.1c-0.5,0-1,0-1.5,0
		c-0.5,0-1,0-1.5,0c-0.5,0-0.7,0-0.7,0.1c0,0.1,0.1,0.2,0.4,0.2c0.2,0,0.5,0.1,0.8,0.1c0.3,0,0.6,0.1,0.8,0.1c0.2,0,0.4,0.1,0.4,0.1
		c0,0.1,0,0.1-0.1,0.1c-0.4,0-0.7,0-1-0.1c-0.3,0-0.6-0.1-0.8-0.1c-0.1,0-0.3-0.1-0.3-0.3s-0.2-0.2-0.2-0.2v0v0.2v0.1
		c0,0,0,0.1,0,0.1c-0.1,0.1-0.3,0.2-0.6,0.2c-0.2,0-0.5,0-0.7-0.1c-0.2,0-0.4-0.1-0.6-0.1c-0.1,0-0.2,0.1-0.4,0.3
		c-0.2,0.2-0.4,0.3-0.7,0.3c-0.1,0-0.1,0-0.1,0c0,0-0.1,0-0.1,0c0.4,0.1,0.7,0.1,0.9,0.1c0.2,0,0.5,0.1,0.7,0.1
		c0.2,0,0.3,0.1,0.4,0.1c0,0.1-0.1,0.1-0.4,0.1c-0.2,0-0.5,0-0.8,0c-0.2,0-0.3,0-0.4,0s-0.2,0-0.2,0c-0.1,0-0.3,0-0.4,0
		c-0.1,0-0.2,0.1-0.2,0.2c0,0.1,0.2,0.1,0.5,0.1c0.3,0,0.7,0,1.2,0.1c0.5,0,1,0,1.6,0c0.6,0,1.1,0,1.6,0c0.5,0,0.9,0,1.2,0
		c0.3,0,0.5,0.1,0.5,0.1c-0.9,0.1-1.9,0.1-2.8,0.2c-0.8,0.1-1.6,0.1-2.5,0.2c-0.9,0.1-1.6,0.1-2.3,0.2c0,0.1-0.2,0.2-0.5,0.4
		c-0.3,0.2-0.8,0.3-1.5,0.3c-0.2,0-0.7,0.1-1.3,0.3c-0.6,0.2-1.4,0.4-2.3,0.6c-0.9,0.3-1.8,0.5-2.9,0.9c-1,0.3-2,0.6-3,0.9
		c-1,0.3-1.9,0.6-2.8,0.8c-0.8,0.2-1.5,0.4-2.1,0.6c-0.7,0.2-1.3,0.3-2,0.4c-0.6,0.1-1.2,0.3-1.7,0.5c-0.2,0.2-0.4,0.2-0.7,0.2
		c-0.5,0-1-0.2-1.6-0.7c-0.6-0.5-1.2-1.1-1.8-1.9c-0.6-0.8-1.2-1.6-1.8-2.5c-0.6-0.9-1.1-1.8-1.6-2.6c-0.5-0.8-0.9-1.6-1.1-2.3
		c-0.3-0.7-0.5-1.2-0.5-1.4c0-0.4,0.2-1,0.5-1.8c0.3-0.8,0.7-1.7,1.2-2.8c0.5-1,1.1-2.2,1.7-3.4c0.6-1.2,1.3-2.4,2-3.6
		c0.7-1.2,1.3-2.4,1.9-3.6c0.6-1.2,1.2-2.2,1.6-3.2c0.3-0.6,0.6-1.3,1.1-2c0.4-0.8,0.9-1.6,1.4-2.4c0.5-0.8,1-1.6,1.5-2.4
		c0.5-0.8,1-1.5,1.4-2.2c0.4-0.7,0.8-1.2,1-1.6c0.3-0.4,0.4-0.7,0.5-0.8c0.3-0.5,0.6-0.8,0.8-1c0.2-0.2,0.4-0.2,0.7-0.2
		c0.1,0,0.3,0,0.5,0.1c0.2,0,0.4,0.1,0.6,0.1c0.3,0,0.7-0.1,1-0.2c0.1,0,0.4-0.1,0.9-0.1c0.6-0.1,1.3-0.1,2.1-0.2
		c0.8-0.1,1.7-0.1,2.6-0.2c0.9-0.1,1.8-0.2,2.6-0.2c0.8-0.1,1.5-0.1,2.1-0.1c0.6,0,0.9-0.1,0.9-0.1c0.7,0,1.7,0,2.9,0
		c1.3,0,2.7-0.1,4.2-0.1s3.1-0.1,4.7-0.1c1.6,0,3.1-0.1,4.5-0.1c1.4,0,2.6-0.1,3.6-0.1c1,0,1.6,0,1.9,0h0.2c0,0,0,0-0.1,0
		c0.1,0,0.2,0,0.3,0s0.2,0,0.3,0c0.2,0,0.4,0,0.7,0c0.3,0,0.5,0,0.7,0c0.2,0,0.4,0.1,0.6,0.1c0.2,0.1,0.2,0.2,0.2,0.3
		c0,0.1,0,0.1-0.1,0.1c-0.1,0-0.2,0-0.4-0.1c-0.2-0.1-0.5-0.1-0.7-0.1l-0.4,0.1c0,0.1,0,0.2,0.1,0.3c0,0.1,0.1,0.3,0.1,0.5
		s0.1,0.3,0.1,0.5c0,0.2,0.1,0.3,0.1,0.4c0,0.1-0.1,0.1-0.3,0.1c-0.1,0-0.3,0-0.6-0.1c-0.3,0-0.5-0.1-0.6-0.1
		c-1.4,0.9-2.8,1.7-4.1,2.3c-1.3,0.6-2.5,1.1-3.8,1.6c-1.3,0.4-2.6,0.8-4.1,1c-1.4,0.3-3,0.5-4.8,0.7c-1.8,0.2-3.8,0.4-6,0.6
		c-2.2,0.2-4.8,0.5-7.7,0.8c-0.2,0.3-0.5,0.7-0.9,1.2c-0.3,0.6-0.6,1.2-0.9,1.8c-0.3,0.7-0.5,1.3-0.8,1.9c-0.2,0.6-0.4,1.1-0.5,1.5
		c0.6,0,1.3,0,2.3,0c0.9,0,1.9,0,3,0c1,0,2.1,0,3.2,0.1c1.1,0,2,0.1,2.9,0.1c1.3-0.1,2.4-0.1,3.2-0.2c0.8,0,1.5,0,2,0
		c0.5,0,0.9,0,1.2,0c0.3,0,0.6,0,0.9,0c0.2,0,0.7,0,1.3,0c0.6,0,1.3,0,2,0.1c0.8,0,1.5,0.1,2.3,0.1c0.8,0,1.5,0.1,2.2,0.1
		c0.7,0,1.2,0.1,1.6,0.1c0.4,0,0.6,0.1,0.6,0.1c0,0-0.3,0-0.8,0.1c-0.5,0-1.1,0-1.8,0c-0.7,0-1.3,0-2,0.1c-0.6,0-1.1,0.1-1.2,0.2
		c0.1,0.3,0.2,0.5,0.4,0.6c0.2,0.1,0.3,0.1,0.5,0.1c0.2,0,0.3,0,0.4,0.1c0.1,0.1,0.2,0.2,0.2,0.4c0,0.1,0,0.2-0.1,0.3v0.2
		c0,0.4-0.1,0.8-0.3,1.2h2.9c0.3,0,0.6,0,0.8,0.1c0.3,0.1,0.4,0.1,0.4,0.2c0,0.1-0.3,0.1-0.8,0.1c-0.8,0-1.4,0-2,0
		c-0.5,0-1.1,0-1.6,0c0,0.1-0.1,0.1-0.1,0.2c0,0.1-0.1,0.1-0.1,0.2c0.2,0,0.6,0,1.1,0c0.5,0,0.9,0,1.4,0c0.5,0,0.9,0,1.2,0.1
		c0.3,0,0.5,0.1,0.5,0.2c0,0.1-0.2,0.1-0.8,0.1h-0.9c0,0-0.2,0-0.4,0.1c-0.2,0-0.5,0.1-0.8,0.1c-0.3,0-0.6,0.1-0.9,0.1
		c-0.3,0.1-0.6,0.1-0.8,0.1c0.8,0,1.3,0,1.7,0.1c0.3,0,0.5,0,0.5,0.1s-0.1,0-0.3,0.1c-0.2,0-0.5,0-0.8,0c-0.3,0-0.7,0-1.1,0
		c-0.4,0-0.8,0-1.2,0.1c0.1,0.1,0.1,0.2,0.2,0.3c0.4,0,0.9,0.1,1.3,0.1c0.4,0,0.8,0.1,1.2,0.1c0.4,0,0.7,0.1,0.9,0.1
		c0.2,0,0.4,0.1,0.4,0.1c0,0.1-0.3,0.1-0.8,0.1c-0.6,0-1.5,0.1-2.9,0.1c-0.1,0.2-0.2,0.3-0.5,0.4c-0.2,0.1-0.5,0.2-0.8,0.3
		c0,0-0.3,0-0.9,0.1c-0.6,0.1-1.5,0.1-2.6,0.2c-1.1,0.1-2.3,0.2-3.8,0.3c-1.4,0.1-2.9,0.2-4.5,0.3c-1.5,0.1-3.1,0.2-4.6,0.3
		c-1.5,0.1-2.9,0.2-4.2,0.3c-1.3,0.1-2.4,0.2-3.3,0.2c-0.9,0.1-1.6,0.1-1.9,0.1c-0.4,1-0.8,1.8-1.2,2.6c-0.4,0.8-0.8,1.4-1.2,2.1
		c-0.4,0.6-0.8,1.2-1.1,1.7c-0.4,0.5-0.7,1-0.9,1.5v0.2c0,0.1,0,0.2,0,0.3H199.7z M213.6,49.3c-0.6,0-1.3,0-2.1,0.1
		c-0.9,0-1.7,0-2.6,0.1c-0.9,0-1.9,0.1-3.1,0.1h1.1c0.5,0,1.4,0,2.5,0.1C210.5,49.6,211.9,49.5,213.6,49.3z M212.2,46.1L212.2,46.1
		c-0.4-0.1-0.9-0.1-1.3-0.2c-0.4,0-0.8-0.1-1.2-0.1c-0.4-0.1-0.8-0.1-1.1-0.2v0.3c0,0.2,0.1,0.4,0.2,0.4c0.1,0,0.2,0,0.2,0l0.1-0.1
		c0.5,0,0.9,0,1.3,0.1c0.4,0,0.9,0.1,1.4,0.1C212,46.3,212.1,46.2,212.2,46.1z M217.7,66.3c0,0.1,0,0.2,0.1,0.3c0.2,0,0.4,0,0.6,0
		c0.2,0,0.3-0.1,0.3-0.3H217.7z M222,66.6c0-0.1,0.2-0.1,0.5-0.1c0.3,0,0.6,0,0.9,0c0.3,0,0.5,0,0.6,0c0.1,0,0.1,0.1,0.1,0.1
		s0,0.1-0.1,0.1c-0.1,0-0.3,0-0.6,0c-0.3,0-0.6,0-0.9,0C222.1,66.7,222,66.7,222,66.6z M222.9,45.8c0,0-0.1,0-0.1,0c0,0-0.1,0-0.2,0
		c0.4,0.1,0.8,0.2,1,0.3c0.2,0.1,0.5,0.2,0.6,0.3c0.2,0.1,0.3,0.2,0.4,0.2c0.1,0.1,0.3,0.1,0.6,0.1c0.1,0,0.3,0.1,0.5,0.2
		c0.2,0.1,0.4,0.2,0.8,0.2c0,0,0.1-0.1,0.1-0.2c0-0.1,0-0.3,0-0.5c0-0.1,0-0.2-0.1-0.3c-0.1-0.1-0.2-0.1-0.4-0.1L222.9,45.8z
		 M230.5,46.6c0-0.3-0.1-0.4-0.3-0.5c-0.2-0.1-0.4-0.1-0.7-0.2c-0.3,0-0.6,0-0.9,0c-0.3,0-0.7,0-1-0.1c0.3,0.3,0.5,0.5,0.6,0.7
		c0.1,0.2,0.2,0.3,0.2,0.4c0,0.1,0.1,0.2,0.2,0.2c0.1,0,0.2,0,0.5,0c0,0,0.1,0,0.3,0c0.2,0,0.3,0,0.5-0.1c0.2,0,0.3-0.1,0.5-0.2
		C230.4,46.8,230.5,46.7,230.5,46.6z M233.4,63.7c-0.1,0-0.3,0-0.5,0.1c-0.2,0-0.3,0-0.5,0c-0.3,0-0.5,0-0.6-0.1
		c0.1-0.1,0.3-0.2,0.5-0.3c0.2,0,0.4-0.1,0.6-0.1c0.3,0,0.5,0.1,0.5,0.2C233.5,63.6,233.5,63.6,233.4,63.7z"/>
	<path id="XMLID_868_" d="M273.3,30.8c1.3,0.4,2.5,1,3.6,1.8c1.1,0.7,2,1.6,2.8,2.7c0.8,1.1,1.4,2.3,1.8,3.8c0.4,1.4,0.6,3.1,0.6,5
		c0,2.1-0.2,4.2-0.7,6.2l2.4,0c0.1,0,0.2,0,0.3,0c0,0,0,0,0.1,0c0,0,0,0,0.1,0c0,0,0.1,0,0.2,0s0.2,0,0.3,0c0.2,0,0.3,0,0.4,0h-0.3
		c0,0,0,0,0,0c0,0,0,0,0,0h0.1c0,0,0,0,0,0s0,0,0,0c-0.1,0-0.2,0-0.3,0c-0.1,0-0.2,0-0.2,0h-0.1c-0.1,0-0.5,0.1-1,0.1
		c-0.6,0-1.2,0.1-1.9,0.1c-0.9,3.4-2.3,6.5-4.3,9.2s-4.5,5-7.3,6.9c-2.8,1.9-6,3.4-9.4,4.4c-3.4,1-7,1.5-10.6,1.5
		c-2.2,0-4.4-0.3-6.4-0.8s-3.8-1.3-5.3-2.5c-1.5-1.2-2.7-2.7-3.6-4.5c-0.9-1.9-1.3-4.1-1.3-6.8c0-2.8,0.4-5.4,1.2-7.9
		c0.8-2.5,1.9-4.7,3.4-6.8c1.4-2.1,3.1-3.9,5-5.5c1.9-1.6,4-3,6.3-4.2c2.2-1.2,4.6-2.1,7-2.8c2.4-0.7,4.9-1.1,7.4-1.3
		c0.1-0.3,0.3-0.6,0.5-0.8c0.3-0.2,0.7-0.3,1.3-0.3c0.6,0,1.3,0.1,2,0.2c0.8,0.2,1.5,0.3,2.3,0.6c0.8,0.2,1.5,0.5,2.1,0.7
		c0.7,0.2,1.2,0.4,1.5,0.6L273.3,30.8z M261,38.8c0,0,0-0.1-0.1-0.1c-0.1,0-0.1-0.1-0.1-0.2c0-0.1,0.1-0.2,0.2-0.3
		c0.1-0.1,0.1-0.2,0.2-0.2l0.8,0.2c-0.1-0.2-0.1-0.4-0.2-0.7c0-0.2,0-0.4,0-0.7c0-0.8,0.2-1.5,0.6-2c-2.6,0.8-4.9,2-7.1,3.4
		c-2.1,1.4-4,3-5.5,4.9c-1.5,1.9-2.7,4-3.6,6.4c-0.8,2.3-1.3,4.9-1.3,7.6c0,1,0.1,2,0.4,2.8c0.2,0.8,0.6,1.5,1.2,2.1
		c0.6,0.6,1.4,1,2.4,1.4c1,0.3,2.2,0.5,3.7,0.5c2.3,0,4.4-0.3,6.3-0.9c1.9-0.6,3.5-1.5,5-2.6c1.4-1.1,2.6-2.5,3.6-4.1
		c1-1.6,1.7-3.3,2.1-5.3h-0.8c-0.1,0-0.3,0-0.4,0s-0.3,0-0.4,0h-3.1c-0.1,0-0.3,0-0.4,0c-0.1,0-0.3,0-0.4,0c0,0,0,0,0,0h-2.5
		c-0.1,0-0.3,0-0.3,0h0.3c0.1,0,0.1,0,0.1,0h-0.3c0,0,0,0-0.1,0c0,0,0,0-0.1,0h0.1c0.1,0,0.3,0,0.3,0c0.1,0,0.2,0,0.3,0h0.1
		c0.1,0,0.3,0,0.6,0h0.3c0.1,0,0.2,0,0.3,0s0.2,0,0.4,0h0.5c0.3-0.1,0.8-0.2,1.5-0.2c0.3,0,0.6,0,0.9,0c0.3,0,0.6,0,0.9,0
		c0.3,0,0.5,0,0.8,0c0.3,0,0.5,0,0.8-0.1h0.8c0.3-1.5,0.5-3.2,0.5-4.9c0-0.8-0.1-1.6-0.2-2.3c-0.1-0.7-0.4-1.3-0.8-1.8
		c-0.4-0.5-0.9-0.9-1.5-1.2c-0.7-0.3-1.5-0.5-2.5-0.5c0,0.1,0,0.1,0,0.3c0,0.1-0.1,0.2-0.3,0.3c-0.2,0.1-0.4,0.2-0.6,0.2
		c-0.3,0-0.6-0.1-0.7-0.4c0,0,0-0.1-0.1-0.1c-0.1,0-0.1-0.1-0.1-0.2v0c-0.4-0.1-0.8-0.3-1.1-0.7c-0.1,0.1-0.2,0.1-0.4,0.2
		s-0.3,0.1-0.4,0.1C261.3,39.1,261.1,39,261,38.8z M258.8,50.6C258.8,50.6,258.8,50.6,258.8,50.6l-0.1-0.2c0-0.1,0-0.1,0.1-0.2
		c0-0.1,0.1-0.1,0.1-0.1c0.4,0.1,0.6,0.2,0.8,0.3c0.1,0.1,0.2,0.1,0.2,0.1c0,0.1-0.1,0.2-0.4,0.3c-0.3,0.1-0.4,0.1-0.5,0.1
		c-0.1,0-0.1,0-0.1-0.1C258.9,50.7,258.9,50.7,258.8,50.6z M260.3,36.9C260.3,36.9,260.3,36.9,260.3,36.9l-0.1-0.2
		c0-0.1,0-0.1,0.1-0.2c0-0.1,0.1-0.1,0.1-0.1c0.4,0.1,0.6,0.2,0.8,0.2c0.1,0.1,0.2,0.1,0.2,0.1c0,0.1-0.1,0.2-0.4,0.3
		c-0.3,0.1-0.4,0.1-0.5,0.1c-0.1,0-0.1,0-0.1-0.1C260.4,37.1,260.4,37,260.3,36.9z M262,29.2C261.9,29.2,261.9,29.2,262,29.2
		l-0.1-0.2c0-0.1,0-0.1,0.1-0.2c0-0.1,0.1-0.1,0.1-0.1c0.4,0.1,0.6,0.2,0.8,0.2C263,29,263,29,263,29c0,0.1-0.1,0.2-0.4,0.3
		c-0.3,0.1-0.4,0.1-0.5,0.1s-0.1,0-0.1-0.1C262.1,29.4,262,29.3,262,29.2z"/>
</g>
</svg>
